<svg width="156" height="58" viewBox="0 0 156 58" fill="none" xmlns="http://www.w3.org/2000/svg">
<g opacity="0.5">
<path d="M43.3595 20L34.293 17V4L43.3706 6.66667L43.3595 20Z" fill="#BFBFBF"/>
<path d="M45.7246 6.66667L54.8022 4L54.7706 16.991L45.7246 20V6.66667Z" fill="#BFBFBF"/>
<path d="M52.9529 2.59237L44.4926 3.24249e-05L36.1426 2.59237L44.5047 4.8147L52.9529 2.59237Z" fill="#BFBFBF"/>
<path d="M66.2208 20L57.1543 17V4L66.2319 6.66667L66.2208 20Z" fill="#BFBFBF"/>
<path d="M68.5859 6.66667L77.6635 4L77.6319 16.991L68.5859 20V6.66667Z" fill="#BFBFBF"/>
<path d="M75.8143 2.59237L67.3539 3.24249e-05L59.0039 2.59237L67.366 4.8147L75.8143 2.59237Z" fill="#BFBFBF"/>
<path d="M9.07759 25.6667L0 23V36L9.06656 39L9.07759 25.6667Z" fill="#BFBFBF"/>
<path d="M11.4316 25.6667L20.5092 23L20.4777 35.9913L11.4316 39V25.6667Z" fill="#BFBFBF"/>
<path d="M18.66 21.5924L10.1996 19L1.84961 21.5924L10.2118 23.8147L18.66 21.5924Z" fill="#BFBFBF"/>
<path d="M31.9279 39L22.8613 36V23L31.9389 25.6667L31.9279 39Z" fill="#BFBFBF"/>
<path d="M34.293 25.6667L43.3706 23L43.339 35.9913L34.293 39V25.6667Z" fill="#BFBFBF"/>
<path d="M41.5213 21.5924L33.0609 19L24.7109 21.5924L33.0732 23.8147L41.5213 21.5924Z" fill="#BFBFBF"/>
<path d="M20.4982 58L11.4316 55V42L20.5092 44.6667L20.4982 58Z" fill="#BFBFBF"/>
<path d="M22.8613 44.6667L31.9389 42L31.9074 54.9913L22.8613 58V44.6667Z" fill="#BFBFBF"/>
<path d="M30.0896 40.5923L21.6293 38L13.2793 40.5923L21.6415 42.8147L30.0896 40.5923Z" fill="#BFBFBF"/>
<path d="M60.649 46.5084L59.982 46.5108C59.7372 46.5108 59.4252 46.6747 59.3485 46.9405L57.3249 54.0088L55.3235 46.9558C55.2633 46.7347 55.0532 46.5108 54.7674 46.5108H53.9776C53.6932 46.5108 53.4858 46.7377 53.4283 46.9604L51.5664 53.9401L49.6426 46.9388C49.5666 46.6828 49.2469 46.5108 48.9961 46.5108L48.0362 46.5091C47.8311 46.5091 47.6405 46.5965 47.5383 46.7371C47.469 46.8324 47.4499 46.9405 47.4818 47.0345L50.4539 57.4664C50.5194 57.6858 50.7111 57.9067 50.9915 57.9067H51.946C52.2038 57.9067 52.4298 57.7204 52.495 57.4561L54.3243 50.5071L56.315 57.464C56.3748 57.6771 56.5674 57.9067 56.8492 57.9067H57.7882C58.0494 57.9067 58.2693 57.7268 58.3339 57.4631L61.1947 47.0388C61.2283 46.9384 61.2088 46.8268 61.1405 46.7328C61.04 46.5944 60.8517 46.5084 60.649 46.5084Z" fill="#BFBFBF"/>
<path d="M68.9023 50.9374H63.8598C63.9758 49.5344 64.8947 48.0798 66.4513 48.0238C68.1078 48.0774 68.8656 49.4988 68.9023 50.9374ZM66.4476 46.4338C63.0415 46.4338 61.4902 49.4193 61.4902 52.193C61.4902 55.6548 63.4187 57.8914 66.4032 57.8914C68.5392 57.8914 70.1674 56.8214 70.8708 54.952C70.9084 54.8451 70.8966 54.7291 70.8378 54.6251C70.7662 54.4988 70.6304 54.4035 70.4697 54.3684L69.5242 54.1891C69.2704 54.1497 68.9796 54.2988 68.8834 54.515C68.4242 55.5537 67.587 56.1431 66.5364 56.1738C65.5254 56.1428 64.5971 55.5473 64.1718 54.6577C63.8262 53.9311 63.7751 53.2148 63.7694 52.4864L70.6149 52.4841C70.7585 52.4841 70.9071 52.4214 71.012 52.3161C71.0997 52.2287 71.1474 52.1201 71.1464 52.0114C71.1296 49.3148 69.8867 46.4338 66.4476 46.4338Z" fill="#BFBFBF"/>
<path d="M79.5668 52.2097C79.5668 52.8483 79.4502 56.0374 77.165 56.119C76.3991 56.09 75.6252 55.6437 75.1928 54.9838C74.8744 54.4847 74.6885 53.7947 74.6407 52.941V51.0647C74.6781 49.6274 75.6984 48.05 77.1576 47.989C79.4505 48.0787 79.5668 51.5203 79.5668 52.2097ZM77.5234 46.337H77.3422C76.2115 46.337 75.3229 46.8026 74.6407 47.7571L74.6397 43.3594C74.6397 43.1124 74.3825 42.8874 74.0984 42.8874H73.114C72.8568 42.8874 72.569 43.0894 72.5684 43.3594V57.0874C72.5694 57.3368 72.8266 57.5633 73.1103 57.5633L73.3995 57.5618C73.6725 57.5618 73.8668 57.3437 73.9324 57.141L74.2403 56.172C74.9558 57.1793 76.0333 57.771 77.1865 57.771H77.363C80.4006 57.771 81.7603 54.8417 81.7603 51.9387C81.7603 50.4937 81.4008 49.112 80.7745 48.1481C80.0506 47.031 78.8047 46.337 77.5234 46.337Z" fill="#BFBFBF"/>
<path d="M92.5403 51.9007C91.9002 51.4447 91.1306 51.2923 90.3597 51.1397L88.8814 50.868C87.8206 50.6951 87.2067 50.413 87.2067 49.485C87.2067 48.504 88.2321 48.129 89.1016 48.1057C90.1633 48.1323 90.9618 48.602 91.3495 49.428C91.4416 49.6227 91.6457 49.7536 91.8578 49.7536C91.8941 49.7536 91.9311 49.7496 91.9661 49.7421L92.8886 49.54C93.0392 49.507 93.1798 49.4047 93.2551 49.2716C93.3153 49.166 93.3284 49.0507 93.2924 48.9477C92.7279 47.3173 91.2947 46.4557 89.1265 46.4557C87.1674 46.46 85.0738 47.3237 85.0738 49.7359C85.0738 51.3846 86.1188 52.4316 88.1817 52.8483L89.8365 53.1609C90.745 53.3333 91.6739 53.64 91.6739 54.607C91.6739 56.0387 89.9935 56.1846 89.4855 56.1951C88.3458 56.1707 87.0554 55.6667 86.7421 54.5993C86.6792 54.3647 86.3813 54.1987 86.1201 54.2526L85.1552 54.45C85.0099 54.4803 84.8771 54.574 84.7998 54.7004C84.7349 54.8057 84.7164 54.9237 84.7464 55.0314C85.2443 56.8023 86.9687 57.8703 89.3591 57.8883L89.4122 57.8887C91.5471 57.8887 93.8283 56.9823 93.8283 54.4397C93.8283 53.4047 93.3586 52.4793 92.5403 51.9007Z" fill="#BFBFBF"/>
<path d="M102.299 50.9477H97.255C97.3703 49.5434 98.2892 48.088 99.8458 48.0346C101.502 48.0867 102.26 49.5079 102.299 50.9477ZM99.8431 46.4434C96.4364 46.4434 94.8848 49.429 94.8848 52.2026C94.8848 55.6641 96.8136 57.9004 99.7984 57.9004C101.935 57.9004 103.563 56.8303 104.267 54.9613C104.304 54.8543 104.293 54.738 104.233 54.6337C104.162 54.5073 104.026 54.412 103.865 54.3776L102.918 54.1983C102.697 54.1626 102.388 54.2763 102.279 54.5246C101.819 55.5626 100.982 56.152 99.9322 56.184C98.9203 56.152 97.9923 55.5566 97.5687 54.6673C97.2224 53.9423 97.171 53.2254 97.1659 52.4953L104.011 52.4936C104.153 52.4936 104.301 52.4314 104.406 52.3267C104.494 52.2389 104.542 52.1303 104.541 52.021C104.525 49.3246 103.283 46.4434 99.8431 46.4434Z" fill="#BFBFBF"/>
<path d="M111.005 46.5703C110.871 46.5557 110.743 46.5487 110.618 46.5487C109.469 46.5487 108.536 47.168 107.889 48.351L107.891 47.315C107.89 47.0641 107.638 46.8436 107.351 46.8436H106.496C106.216 46.8436 105.968 47.065 105.966 47.319L105.965 57.3833C105.965 57.6359 106.212 57.8577 106.495 57.8577L107.492 57.8573C107.752 57.8573 108.044 57.6553 108.046 57.3833L108.047 52.3094C108.047 51.4727 108.126 50.8423 108.529 50.0966C109.105 49.0344 109.909 48.5133 110.987 48.5049C111.258 48.503 111.495 48.269 111.495 48.004V47.0626C111.495 46.8163 111.28 46.6 111.005 46.5703Z" fill="#BFBFBF"/>
<path d="M121.479 46.3726L120.691 46.373C120.444 46.373 120.128 46.5487 120.051 46.8063L117.498 54.7632L114.89 46.8143C114.813 46.5504 114.496 46.373 114.248 46.373L113.123 46.372C112.917 46.372 112.717 46.4632 112.615 46.6043C112.546 46.6987 112.527 46.8057 112.561 46.9056L116.13 57.4019C116.199 57.6096 116.381 57.8523 116.669 57.8523H118.03C118.28 57.8523 118.484 57.6837 118.578 57.401L122.04 46.909C122.074 46.8093 122.056 46.7019 121.988 46.6073C121.885 46.4649 121.685 46.3726 121.479 46.3726Z" fill="#BFBFBF"/>
<path d="M124.068 42.3381C123.342 42.3381 122.752 42.9247 122.752 43.6464C122.752 44.368 123.342 44.9543 124.068 44.9543C124.793 44.9543 125.384 44.368 125.384 43.6464C125.384 42.9247 124.793 42.3381 124.068 42.3381Z" fill="#BFBFBF"/>
<path d="M124.608 46.3087L123.528 46.3076C123.234 46.3076 122.966 46.5433 122.966 46.8017L122.961 57.488C122.961 57.6173 123.028 57.7457 123.145 57.841C123.251 57.9276 123.387 57.9776 123.524 57.9776L124.612 57.9792H124.613C124.911 57.9766 125.173 57.7473 125.173 57.4886V46.8017C125.173 46.539 124.909 46.3087 124.608 46.3087Z" fill="#BFBFBF"/>
<path d="M134.704 53.5552L133.802 53.5586C133.55 53.5586 133.339 53.7086 133.245 53.9692C132.915 55.3785 132.169 56.1089 131.037 56.1412C128.833 56.0762 128.662 53.0302 128.662 52.0982C128.662 50.2396 129.311 48.2339 131.124 48.1809C132.218 48.2142 133.013 48.992 133.252 50.2593C133.297 50.5179 133.498 50.7136 133.771 50.7476L134.737 50.7569C135.025 50.7259 135.251 50.5095 135.249 50.2412C134.908 47.9509 133.307 46.4706 131.168 46.4706L131.094 46.4726L131.01 46.4706C127.899 46.4706 126.506 49.3495 126.506 52.2025C126.506 54.8183 127.68 57.8726 130.993 57.8726H131.151C133.237 57.8726 134.811 56.4229 135.262 54.0726C135.272 53.9606 135.233 53.8486 135.153 53.7576C135.05 53.6396 134.885 53.564 134.704 53.5552Z" fill="#BFBFBF"/>
<path d="M143.613 50.9477H138.568C138.683 49.543 139.603 48.088 141.16 48.0346C142.816 48.0867 143.575 49.5079 143.613 50.9477ZM141.157 46.4434C137.75 46.4434 136.199 49.429 136.199 52.2026C136.199 55.6641 138.128 57.9004 141.113 57.9004C143.248 57.9004 144.876 56.831 145.58 54.9617C145.617 54.854 145.605 54.7374 145.546 54.6337C145.473 54.5064 145.341 54.4133 145.178 54.3776L144.233 54.1983C144.01 54.1626 143.702 54.2763 143.593 54.5246C143.132 55.5626 142.295 56.152 141.245 56.1844C140.234 56.152 139.306 55.5566 138.882 54.6673C138.536 53.9413 138.484 53.2243 138.479 52.4953L145.324 52.4943C145.468 52.4943 145.617 52.4314 145.722 52.3257C145.81 52.2374 145.857 52.1286 145.855 52.021C145.839 49.3246 144.597 46.4434 141.157 46.4434Z" fill="#BFBFBF"/>
<path d="M154.431 51.9007C153.79 51.4443 153.019 51.2921 152.25 51.1397L150.772 50.868C149.712 50.6951 149.098 50.413 149.098 49.485C149.098 48.2197 150.682 48.1139 150.991 48.1057C152.054 48.1323 152.852 48.602 153.239 49.4284C153.332 49.623 153.537 49.7536 153.749 49.7536C153.786 49.7536 153.823 49.7496 153.858 49.7421L154.78 49.54C154.931 49.507 155.071 49.4043 155.146 49.2714C155.206 49.1656 155.219 49.0507 155.183 48.9477C154.619 47.3173 153.186 46.4557 151.017 46.4557C149.058 46.46 146.965 47.3237 146.965 49.7359C146.965 51.385 148.01 52.432 150.073 52.8483L151.728 53.1609C152.636 53.3333 153.565 53.64 153.565 54.607C153.565 56.0387 151.885 56.1846 151.377 56.1951C150.32 56.1727 148.968 55.74 148.634 54.6007C148.573 54.3647 148.275 54.199 148.009 54.2526L147.046 54.45C146.9 54.4807 146.767 54.575 146.69 54.7017C146.625 54.8073 146.607 54.9243 146.637 55.0314C147.134 56.8023 148.858 57.8703 151.249 57.8883L151.302 57.8887C153.437 57.8887 155.718 56.9823 155.718 54.4397C155.718 53.404 155.249 52.4784 154.431 51.9007Z" fill="#BFBFBF"/>
<path fill-rule="evenodd" clip-rule="evenodd" d="M110.516 25.7341V23.3074C110.517 22.9394 110.799 22.6924 111.137 22.6927L122.103 22.6924C122.453 22.6924 122.735 22.9454 122.735 23.3047V25.3857C122.732 25.7341 122.435 26.1895 121.909 26.9128L116.229 34.9531C118.337 34.9035 120.568 35.2163 122.483 36.2838C122.916 36.5244 123.031 36.8814 123.066 37.23V39.8193C123.066 40.1763 122.672 40.589 122.258 40.374C118.883 38.6207 114.404 38.4293 110.671 40.3943C110.29 40.596 109.891 40.1897 109.891 39.8327V37.3723C109.891 36.9798 109.899 36.3054 110.298 35.7047L116.88 26.3454L111.15 26.3441C110.8 26.3441 110.519 26.0967 110.516 25.7341Z" fill="#BFBFBF"/>
<path fill-rule="evenodd" clip-rule="evenodd" d="M70.5169 40.8848H67.1801C66.863 40.8642 66.6092 40.6271 66.584 40.3247L66.5863 23.3488C66.5863 23.0091 66.8748 22.7378 67.2298 22.7378L70.3367 22.7361C70.6622 22.7541 70.9224 22.9975 70.9446 23.3061V25.5242H71.0065C71.8154 23.3798 73.3414 22.3811 75.3963 22.3811C77.4825 22.3811 78.7906 23.3798 79.725 25.5242C80.5352 23.3798 82.3719 22.3811 84.3354 22.3811C85.7367 22.3811 87.2607 22.9518 88.195 24.2371C89.2537 25.6668 89.0355 27.7374 89.0355 29.56L89.0335 40.2732C89.0335 40.6119 88.7454 40.8848 88.3907 40.8848H85.0589C84.7234 40.8642 84.4594 40.5988 84.4594 40.2747V31.2745C84.4594 30.5604 84.521 28.7736 84.3656 28.0954C84.1158 26.9513 83.3681 26.6316 82.4042 26.6316C81.5936 26.6316 80.7524 27.1675 80.4098 28.0229C80.0676 28.8816 80.0992 30.3104 80.0992 31.2745V40.2732C80.0992 40.6119 79.811 40.8848 79.4557 40.8848H76.1232C75.7893 40.8642 75.5247 40.5988 75.5247 40.2747L75.5204 31.2745C75.5204 29.381 75.8327 26.5958 73.4665 26.5958C71.0686 26.5958 71.1621 29.31 71.1621 31.2745L71.1601 40.2732C71.1614 40.6119 70.873 40.8848 70.5169 40.8848Z" fill="#BFBFBF"/>
<path fill-rule="evenodd" clip-rule="evenodd" d="M132.206 25.8447C129.745 25.8447 129.59 29.1666 129.59 31.2393C129.59 33.3107 129.559 37.7399 132.176 37.7399C134.761 37.7399 134.885 34.1676 134.885 31.9889C134.885 30.5602 134.824 28.846 134.388 27.4885C134.013 26.3092 133.266 25.8447 132.206 25.8447ZM132.176 22.3809C137.127 22.3809 139.806 26.5956 139.806 31.952C139.806 37.1329 136.846 41.2412 132.176 41.2412C127.318 41.2412 124.67 37.0253 124.67 31.7743C124.67 26.4876 127.347 22.3809 132.176 22.3809Z" fill="#BFBFBF"/>
<path fill-rule="evenodd" clip-rule="evenodd" d="M146.226 40.8848H142.902C142.567 40.8642 142.304 40.5988 142.304 40.2747L142.299 23.2911C142.326 22.9818 142.603 22.7378 142.938 22.7378L146.034 22.7361C146.326 22.7521 146.565 22.9488 146.626 23.2118V25.8094H146.689C147.622 23.4871 148.931 22.3811 151.235 22.3811C152.73 22.3811 154.194 22.9155 155.128 24.3805C155.999 25.7374 155.999 28.0229 155.999 29.6664V40.3495C155.962 40.6505 155.691 40.8848 155.362 40.8848H152.016C151.707 40.8648 151.459 40.6388 151.422 40.3495V31.1316C151.422 29.2742 151.64 26.5587 149.335 26.5587C148.526 26.5587 147.779 27.0958 147.405 27.9164C146.937 28.952 146.876 29.9878 146.876 31.1316V40.2732C146.87 40.6119 146.581 40.8848 146.226 40.8848Z" fill="#BFBFBF"/>
<path fill-rule="evenodd" clip-rule="evenodd" d="M105.138 40.8416C104.917 41.0373 104.6 41.0504 104.351 40.9186C103.243 40.0056 103.044 39.5823 102.438 38.7139C100.607 40.5632 99.3103 41.1179 96.939 41.1179C94.1293 41.1179 91.9453 39.3993 91.9453 35.9626C91.9453 33.2784 93.4115 31.4524 95.5024 30.5569C97.3125 29.7691 99.8408 29.6256 101.775 29.4101V28.9811C101.775 28.194 101.838 27.2627 101.369 26.5829C100.964 25.9743 100.184 25.7243 99.4965 25.7243C98.224 25.7243 97.0933 26.3711 96.8149 27.7109C96.7584 28.0084 96.5379 28.304 96.2356 28.3183L93.003 27.9711C92.7293 27.9101 92.4264 27.6937 92.5054 27.2806C93.2484 23.3906 96.7907 22.2153 99.9655 22.2153C101.587 22.2153 103.711 22.6446 104.99 23.8616C106.612 25.3659 106.456 27.3704 106.456 29.5544V34.7073C106.456 36.2573 107.106 36.9376 107.717 37.773C107.928 38.0743 107.976 38.4313 107.704 38.6523C107.023 39.2183 105.813 40.26 105.147 40.8489L105.138 40.8416ZM101.775 32.7763C101.775 34.0653 101.806 35.1403 101.151 36.285C100.62 37.2166 99.7769 37.7889 98.8406 37.7889C97.5623 37.7889 96.8136 36.8226 96.8136 35.3899C96.8136 32.5735 99.3627 32.0608 101.775 32.0608V32.7763Z" fill="#BFBFBF"/>
<path fill-rule="evenodd" clip-rule="evenodd" d="M61.4061 40.8416C61.1855 41.0373 60.8664 41.0504 60.617 40.9186C59.5092 40.0056 59.3108 39.5823 58.7046 38.7139C56.8743 40.5632 55.5769 41.1179 53.2043 41.1179C50.3956 41.1179 48.2109 39.3993 48.2109 35.9626C48.2109 33.2784 49.6785 31.4524 51.7694 30.5569C53.5798 29.7691 56.1078 29.6256 58.0423 29.4101V28.9811C58.0423 28.194 58.1052 27.2627 57.6365 26.5829C57.231 25.9743 56.45 25.7243 55.7645 25.7243C54.492 25.7243 53.3599 26.3711 53.0826 27.7109C53.0247 28.0084 52.8052 28.304 52.5033 28.3183L49.2693 27.9711C48.9963 27.9101 48.6931 27.6937 48.7714 27.2806C49.5144 23.3906 53.057 22.2153 56.2315 22.2153C57.8554 22.2153 59.9768 22.6446 61.2568 23.8616C62.8796 25.3659 62.723 27.3704 62.723 29.5544V34.7073C62.723 36.2573 63.3732 36.9376 63.9824 37.773C64.1949 38.0743 64.243 38.4313 63.972 38.6523C63.2902 39.2183 62.0788 40.26 61.4138 40.8489L61.4061 40.8416ZM58.0423 32.7763C58.0423 34.0653 58.0729 35.1403 57.4186 36.285C56.8884 37.2166 56.0446 37.7889 55.1096 37.7889C53.8286 37.7889 53.0802 36.8226 53.0802 35.3899C53.0802 32.5735 55.6287 32.0608 58.0423 32.0608V32.7763Z" fill="#BFBFBF"/>
</g>
</svg>
