<svg width="50" height="55" viewBox="0 0 50 55" fill="none" xmlns="http://www.w3.org/2000/svg">
<path fill-rule="evenodd" clip-rule="evenodd" d="M17.7072 11.9536C10.6698 10.6718 5.10569 12.0133 2.88808 15.8544C1.23326 18.7206 1.70628 22.5208 4.03525 26.5829C4.23348 26.9287 4.67446 27.0482 5.02021 26.85C5.36596 26.6518 5.48554 26.2108 5.28731 25.865C3.18935 22.2058 2.78111 18.9261 4.13798 16.576C5.98015 13.3852 10.9433 12.1886 17.4486 13.3735C17.8407 13.4449 18.2164 13.1849 18.2878 12.7928C18.3592 12.4007 18.0993 12.025 17.7072 11.9536ZM7.6949 31.5204C10.5404 34.6474 14.2372 37.5804 18.4532 40.0145C28.6615 45.9083 39.529 47.4836 44.885 43.8316C45.2143 43.6071 45.2992 43.1581 45.0747 42.8289C44.8501 42.4996 44.4012 42.4147 44.0719 42.6392C39.2784 45.9077 28.9551 44.4112 19.1748 38.7646C15.0848 36.4032 11.5051 33.5632 8.76235 30.5491C8.49412 30.2543 8.03772 30.2328 7.74295 30.501C7.44818 30.7692 7.42667 31.2256 7.6949 31.5204Z" fill="#47848F"/>
<path fill-rule="evenodd" clip-rule="evenodd" d="M43.1759 30.6426C47.7837 25.1991 49.3927 19.7242 47.1796 15.8911C45.5512 13.0706 42.1087 11.5815 37.5337 11.522C37.1352 11.5169 36.808 11.8357 36.8028 12.2342C36.7976 12.6327 37.1165 12.96 37.515 12.9652C41.6296 13.0187 44.5954 14.3016 45.9297 16.6127C47.7679 19.7966 46.3331 24.679 42.0743 29.7101C41.8168 30.0143 41.8546 30.4697 42.1588 30.7272C42.463 30.9847 42.9184 30.9468 43.1759 30.6426ZM31.3336 12.1939C27.1674 13.0866 22.7327 14.8319 18.4738 17.2908C7.93559 23.375 1.0613 32.3464 2.01602 38.8515C2.07389 39.2458 2.44047 39.5186 2.83479 39.4607C3.22911 39.4028 3.50185 39.0362 3.44398 38.6419C2.59628 32.8661 9.11244 24.3621 19.1954 18.5407C23.3269 16.1554 27.6208 14.4654 31.636 13.6052C32.0257 13.5217 32.2739 13.1381 32.1904 12.7484C32.1069 12.3587 31.7233 12.1104 31.3336 12.1939Z" fill="#47848F"/>
<path fill-rule="evenodd" clip-rule="evenodd" d="M14.2612 43.3615C16.6704 50.0889 20.6119 54.2309 25.0439 54.2309C28.2763 54.2309 31.2669 52.0275 33.599 48.1482C33.8043 47.8066 33.6938 47.3633 33.3523 47.1579C33.0107 46.9526 32.5673 47.063 32.362 47.4046C30.2662 50.8909 27.6919 52.7876 25.0439 52.7876C21.3623 52.7876 17.8469 49.0933 15.6199 42.8749C15.4856 42.4997 15.0725 42.3044 14.6973 42.4388C14.3221 42.5732 14.1268 42.9863 14.2612 43.3615ZM36.2676 42.0455C37.5148 38.0599 38.1847 33.4622 38.1847 28.671C38.1847 16.7158 34.0004 6.40997 28.0405 3.76357C27.6762 3.60183 27.2498 3.76599 27.0881 4.13025C26.9263 4.4945 27.0905 4.9209 27.4548 5.08264C32.7703 7.4429 36.7414 17.2237 36.7414 28.671C36.7414 33.3192 36.0927 37.7718 34.8902 41.6145C34.7712 41.9948 34.9831 42.3997 35.3634 42.5187C35.7438 42.6377 36.1486 42.4259 36.2676 42.0455Z" fill="#47848F"/>
<path fill-rule="evenodd" clip-rule="evenodd" d="M49.8588 41.3385C49.8588 39.431 48.3125 37.8846 46.405 37.8846C44.4975 37.8846 42.9512 39.431 42.9512 41.3385C42.9512 43.246 44.4975 44.7923 46.405 44.7923C48.3125 44.7923 49.8588 43.246 49.8588 41.3385ZM48.4156 41.3385C48.4156 42.4489 47.5154 43.3491 46.405 43.3491C45.2946 43.3491 44.3944 42.4489 44.3944 41.3385C44.3944 40.2281 45.2946 39.3279 46.405 39.3279C47.5154 39.3279 48.4156 40.2281 48.4156 41.3385Z" fill="#47848F"/>
<path fill-rule="evenodd" clip-rule="evenodd" d="M3.63352 44.7923C5.54102 44.7923 7.08735 43.246 7.08735 41.3385C7.08735 39.431 5.54102 37.8846 3.63352 37.8846C1.72602 37.8846 0.179688 39.431 0.179688 41.3385C0.179688 43.246 1.72602 44.7923 3.63352 44.7923ZM3.63352 43.3491C2.52311 43.3491 1.62294 42.4489 1.62294 41.3385C1.62294 40.2281 2.52311 39.3279 3.63352 39.3279C4.74393 39.3279 5.64409 40.2281 5.64409 41.3385C5.64409 42.4489 4.74393 43.3491 3.63352 43.3491Z" fill="#47848F"/>
<path fill-rule="evenodd" clip-rule="evenodd" d="M25.0437 7.28657C26.9512 7.28657 28.4975 5.74024 28.4975 3.83274C28.4975 1.92524 26.9512 0.378906 25.0437 0.378906C23.1362 0.378906 21.5898 1.92524 21.5898 3.83274C21.5898 5.74024 23.1362 7.28657 25.0437 7.28657ZM25.0437 5.84331C23.9333 5.84331 23.0331 4.94315 23.0331 3.83274C23.0331 2.72233 23.9333 1.82216 25.0437 1.82216C26.1541 1.82216 27.0543 2.72233 27.0543 3.83274C27.0543 4.94315 26.1541 5.84331 25.0437 5.84331Z" fill="#47848F"/>
<path fill-rule="evenodd" clip-rule="evenodd" d="M25.5718 31.1134C24.2228 31.4049 22.8937 30.5476 22.6016 29.1985C22.3107 27.8495 23.1675 26.5204 24.5165 26.2284C25.8655 25.9369 27.1946 26.7942 27.4867 28.1433C27.7781 29.4923 26.9208 30.8214 25.5718 31.1134Z" fill="#47848F"/>
</svg>
