<svg width="53" height="53" viewBox="0 0 53 53" fill="none" xmlns="http://www.w3.org/2000/svg">
<g clip-path="url(#clip0)">
<path d="M44.9475 39.5763L46.8164 38.4973L25.9969 2.43787L24.128 3.51687L44.9475 39.5763Z" fill="#E10098"/>
<path d="M47.2441 35.6162H5.60514V37.7742H47.2441V35.6162Z" fill="#E10098"/>
<path d="M25.5926 48.8535L46.4199 36.8285L45.3409 34.9597L24.5136 46.9847L25.5926 48.8535ZM7.5 17.5133L28.3273 5.48826L27.2483 3.61938L6.42101 15.6444L7.5 17.5133Z" fill="#E10098"/>
<path d="M45.3351 17.505L46.4141 15.6362L25.5868 3.61121L24.5077 5.48009L45.3351 17.505Z" fill="#E10098"/>
<path d="M7.88492 39.5763L28.7044 3.51687L26.8355 2.43787L6.01604 38.4973L7.88492 39.5763ZM45.5938 14.2051H43.4358V38.2551H45.5938V14.2051ZM9.40176 14.2051H7.24376V38.2551H9.40176V14.2051Z" fill="#E10098"/>
<path d="M25.9598 47.9403L26.9023 46.3077L8.78815 35.8492L7.84564 37.4817L25.9598 47.9403Z" fill="#E10098"/>
<path d="M4.38345 38.9572C5.63145 41.1282 8.41346 41.8692 10.5845 40.6212C12.7555 39.3732 13.4965 36.5912 12.2485 34.4202C11.0005 32.2492 8.21845 31.5082 6.04745 32.7562C3.86345 34.0172 3.12245 36.7862 4.38345 38.9572ZM40.6015 18.0402C41.8495 20.2112 44.6315 20.9522 46.8025 19.7042C48.9735 18.4562 49.7145 15.6742 48.4665 13.5032C47.2185 11.3322 44.4365 10.5912 42.2655 11.8392C40.0945 13.1002 39.3535 15.8692 40.6015 18.0402ZM48.4535 38.9572C49.7015 36.7862 48.9605 34.0172 46.7895 32.7562C44.6185 31.5082 41.8495 32.2492 40.5885 34.4202C39.3405 36.5912 40.0815 39.3602 42.2525 40.6212C44.4365 41.8692 47.2055 41.1282 48.4535 38.9572ZM12.2355 18.0402C13.4835 15.8692 12.7425 13.1002 10.5715 11.8392C8.40046 10.5912 5.63145 11.3322 4.37045 13.5032C3.12245 15.6742 3.86345 18.4432 6.03445 19.7042C8.20546 20.9522 10.9875 20.2112 12.2355 18.0402ZM26.4185 51.6842C28.9275 51.6842 30.9555 49.6562 30.9555 47.1472C30.9555 44.6382 28.9275 42.6102 26.4185 42.6102C23.9095 42.6102 21.8815 44.6382 21.8815 47.1472C21.8815 49.6432 23.9095 51.6842 26.4185 51.6842ZM26.4185 9.85025C28.9275 9.85025 30.9555 7.82224 30.9555 5.31324C30.9555 2.80424 28.9275 0.776245 26.4185 0.776245C23.9095 0.776245 21.8815 2.80424 21.8815 5.31324C21.8815 7.82224 23.9095 9.85025 26.4185 9.85025Z" fill="#E10098"/>
</g>
<defs>
<clipPath id="clip0">
<rect width="52" height="52" transform="matrix(-1 0 0 1 52.418 0.230469)" fill="white"/>
</clipPath>
</defs>
</svg>
