<svg width="16" height="16" viewBox="0 0 16 16" fill="none" xmlns="http://www.w3.org/2000/svg">
<path d="M5.13906 0.000396557C5.08139 0.00323341 5.02452 0.0150002 4.97046 0.035277C1.81499 1.20468 0 4.26944 0 7.7613C0 12.3035 3.68956 15.9989 8.23179 15.9989C11.7236 15.9989 14.7942 14.1839 15.9636 11.0285C16.0022 10.9268 16.0103 10.8161 15.9869 10.71C15.9635 10.6038 15.9095 10.5068 15.8317 10.4309C15.754 10.3549 15.6557 10.3034 15.549 10.2825C15.4423 10.2616 15.3318 10.2724 15.2311 10.3134C14.4259 10.6372 13.5427 10.8076 12.6093 10.8076C8.75415 10.8076 5.19137 7.23895 5.19137 3.3838C5.19137 2.45034 5.35588 1.56717 5.6797 0.761954C5.71354 0.675678 5.72536 0.582336 5.71411 0.490347C5.70285 0.398358 5.66886 0.310614 5.61521 0.235045C5.56157 0.159476 5.48995 0.0984639 5.40682 0.0574975C5.32369 0.016531 5.23167 -0.00309644 5.13906 0.000396557ZM4.27867 1.61071C4.15405 2.18606 4.07519 2.774 4.07519 3.3838C4.07519 7.91128 8.0818 11.9237 12.6093 11.9237C13.2191 11.9237 13.807 11.8391 14.3824 11.7144C13.1592 13.7345 10.8987 14.8827 8.23179 14.8827C4.29279 14.8827 1.11618 11.7003 1.11618 7.7613C1.11618 5.09437 2.25862 2.83386 4.27867 1.61071Z" fill="#252C54"/>
</svg>
