<svg width="16" height="16" viewBox="0 0 16 16" fill="none" xmlns="http://www.w3.org/2000/svg">
<path d="M15.4291 7.42859H14.2863C13.9708 7.42859 13.7148 7.68459 13.7148 8.00002C13.7148 8.31545 13.9708 8.57145 14.2863 8.57145H15.4291C15.7446 8.57145 16.0006 8.31545 16.0006 8.00002C16.0006 7.68459 15.7446 7.42859 15.4291 7.42859Z" fill="#686B78"/>
<path d="M1.71429 7.42859H0.571429C0.256 7.42859 0 7.68459 0 8.00002C0 8.31545 0.256 8.57145 0.571429 8.57145H1.71429C2.02971 8.57145 2.28571 8.31545 2.28571 8.00002C2.28571 7.68459 2.02971 7.42859 1.71429 7.42859Z" fill="#686B78"/>
<path d="M11.2334 4.76573C9.44488 2.98287 6.55345 2.98287 4.76488 4.76573C2.98202 6.5543 2.98202 9.44573 4.76488 11.2343C6.55345 13.0172 9.44488 13.0172 11.2334 11.2343C13.0163 9.44573 13.0163 6.5543 11.2334 4.76573ZM7.99916 11.3714C7.09631 11.3714 6.25059 11.0229 5.61631 10.3829C4.97631 9.74859 4.62773 8.90287 4.62773 8.00002C4.62773 7.09716 4.97631 6.25145 5.61631 5.61716C6.25059 4.97716 7.09631 4.62859 7.99916 4.62859C8.90202 4.62859 9.74773 4.97716 10.382 5.61716C11.022 6.25145 11.3706 7.09716 11.3706 8.00002C11.3706 8.90287 11.022 9.74859 10.382 10.3829C9.74773 11.0229 8.90202 11.3714 7.99916 11.3714Z" fill="#686B78"/>
<path d="M12.8486 12.0406C12.6252 11.8171 12.2635 11.8171 12.0406 12.0406C11.8172 12.264 11.8172 12.6257 12.0406 12.8486L12.8486 13.6566C13.072 13.88 13.4338 13.88 13.6566 13.6566C13.88 13.4331 13.88 13.0714 13.6566 12.8486L12.8486 12.0406Z" fill="#686B78"/>
<path d="M3.15135 3.95943C3.37478 4.18286 3.7365 4.18286 3.95935 3.95943C4.18278 3.73601 4.18278 3.37429 3.95935 3.15143L3.15135 2.34286C2.92792 2.12001 2.56621 2.12001 2.34335 2.34286C2.11992 2.56629 2.11992 2.92801 2.34335 3.15086L3.15135 3.95943Z" fill="#686B78"/>
<path d="M12.8486 3.95941L13.6566 3.15141C13.88 2.92799 13.88 2.56627 13.6566 2.34341C13.4332 2.11999 13.0715 2.11999 12.8486 2.34341L12.0406 3.15141C11.8172 3.37484 11.8172 3.73656 12.0406 3.95941C12.264 4.18227 12.6258 4.18227 12.8486 3.95941Z" fill="#686B78"/>
<path d="M3.15135 12.0406L2.34335 12.8486C2.11992 13.072 2.11992 13.4337 2.34335 13.6566C2.56678 13.88 2.9285 13.88 3.15135 13.6566L3.95935 12.8486C4.18278 12.6251 4.18278 12.2634 3.95935 12.0406C3.73592 11.8177 3.37421 11.8177 3.15135 12.0406Z" fill="#686B78"/>
<path d="M7.99916 2.28571C8.31459 2.28571 8.57059 2.02971 8.57059 1.71429V0.571429C8.57059 0.256 8.31459 0 7.99916 0C7.68373 0 7.42773 0.256 7.42773 0.571429V1.71429C7.42773 2.02971 7.68373 2.28571 7.99916 2.28571Z" fill="#686B78"/>
<path d="M7.99916 13.7143C7.68373 13.7143 7.42773 13.9703 7.42773 14.2857V15.4286C7.42773 15.744 7.68373 16 7.99916 16C8.31459 16 8.57059 15.744 8.57059 15.4286V14.2857C8.57059 13.9703 8.31459 13.7143 7.99916 13.7143Z" fill="#686B78"/>
</svg>
