<svg width="93" height="34" viewBox="0 0 93 34" fill="none" xmlns="http://www.w3.org/2000/svg">
<path d="M27.993 27.1463L21.948 16.9235L27.993 6.70072L30.9071 16.9235L27.993 27.1463ZM14.5391 26.1487L6.94389 18.5752H19.0339L25.0789 28.798L14.5391 26.1487ZM14.5391 7.667L25.0481 5.01772L19.0031 15.2405H6.91311L14.5391 7.667ZM29.9771 0L16.2439 3.58428L14.1979 7.106L10.0751 7.07472L0 16.9235L10.0751 26.7723L14.1979 26.741L16.2439 30.2627L29.9771 33.8783L33.666 20.4452L31.5889 16.9548L33.666 13.464L29.9771 0ZM61.1629 9.94228C59.334 9.94228 58.0939 10.7212 57.1639 12.155H57.102V10.3163H53.8781V23.8425H57.1639V16.1755C57.1639 14.3368 58.311 13.0587 59.892 13.0587C61.38 13.0587 62.496 13.9628 62.496 15.5523V23.8738H65.7821V15.0222C65.8129 12.0615 63.9529 9.94228 61.1629 9.94228ZM48.8869 18.139C48.8869 19.9468 47.8639 21.1932 46.1899 21.1932C44.6711 21.1932 43.71 20.3208 43.71 18.7313V10.3163H40.4239V19.3545C40.4239 22.3152 42.0979 24.2478 45.105 24.2478C46.9961 24.2478 48.0499 23.5307 48.9491 22.2843H49.0421V23.8738H52.2041V10.3163H48.918V18.139H48.8869ZM67.5491 10.3163H70.8349V23.8425H67.5491V10.3163ZM67.5491 6.10878H70.8349V8.82028H67.5491V6.10878ZM89.466 10.3163L87.513 16.4247C87.0791 17.6715 86.7379 19.3858 86.7379 19.3858H86.6449C86.6449 19.3858 86.211 17.6715 85.7771 16.4247L83.5759 10.3163H80.0419L83.6689 19.9468C84.444 22.0038 84.6919 22.8762 84.6919 23.6242C84.6919 24.7462 84.1031 25.4633 82.7081 25.4633H81.4369V28.2992H83.5451C86.2729 28.2992 87.234 27.2085 88.257 24.2165L93 10.3472H89.466V10.3163ZM76.9729 19.8842V12.716H79.0811V10.3472H76.9729V6.10878H73.6871V10.3163H71.8271V12.6847H73.6871V20.6322C73.6871 23.188 75.609 23.8738 77.3449 23.8738C78.771 23.8738 79.143 23.8112 79.143 23.8112V21.1932H78.306C77.5309 21.2245 76.9729 20.8818 76.9729 19.8842Z" fill="#110B09"/>
</svg>
