<svg width="62" height="73" viewBox="0 0 62 73" fill="none" xmlns="http://www.w3.org/2000/svg">
<path fill-rule="evenodd" clip-rule="evenodd" d="M32.4043 1.76997C40.4304 -0.346906 51.0767 -1.71479 56.5166 4.61337C62.178 11.1992 55.7008 21.4893 56.7946 30.1427C57.5864 36.4065 62.3131 41.5577 61.9836 47.8636C61.5808 55.5703 60.7 64.3943 54.7516 69.2342C48.7616 74.1078 39.9654 73.3484 32.4043 71.9302C25.7715 70.6861 20.818 65.8651 15.3681 61.8471C9.93154 57.8389 2.83397 55.0111 0.705357 48.5596C-1.42714 42.0963 1.6917 35.1786 4.53008 28.9988C7.08203 23.4426 11.6207 19.5625 15.979 15.3051C21.1859 10.2188 25.3972 3.6181 32.4043 1.76997Z" fill="#323232"/>
<path d="M9.55407 38.2481C6.99493 38.324 4.56575 39.4054 2.78204 41.2632C0.998344 43.1209 0.000532729 45.6087 0.000372868 48.1984C-0.0109398 49.5129 0.235268 50.8166 0.724786 52.0344C1.2143 53.2523 1.93744 54.36 2.85244 55.2936C3.76745 56.2272 4.8562 56.9683 6.05587 57.474C7.25553 57.9798 8.54235 58.2401 9.84203 58.2401C11.1417 58.2401 12.4285 57.9798 13.6282 57.474C14.8279 56.9683 15.9166 56.2272 16.8316 55.2936C17.7466 54.36 18.4698 53.2523 18.9593 52.0344C19.4488 50.8166 19.695 49.5129 19.6837 48.1984C19.6836 46.8666 19.4193 45.5484 18.9066 44.3218C18.3938 43.0952 17.6429 41.9851 16.6984 41.0573C15.7538 40.1294 14.6349 39.4028 13.4077 38.9202C12.1805 38.4377 10.8701 38.2092 9.55407 38.2481ZM9.61667 39.5254C10.7611 39.4942 11.9 39.6957 12.9661 40.1178C14.0321 40.5399 15.0036 41.1741 15.823 41.9828C16.6424 42.7915 17.293 43.7583 17.7363 44.8259C18.1796 45.8935 18.4067 47.0404 18.404 48.1984C18.4104 49.3392 18.1938 50.4699 17.7667 51.5258C17.3396 52.5816 16.7103 53.5417 15.9151 54.3507C15.1198 55.1597 14.1743 55.8016 13.1329 56.2397C12.0915 56.6778 10.9748 56.9033 9.84695 56.9033C8.71909 56.9033 7.60235 56.6778 6.56096 56.2397C5.51957 55.8016 4.57408 55.1597 3.77884 54.3507C2.98361 53.5417 2.35433 52.5816 1.92719 51.5258C1.50005 50.4699 1.28349 49.3392 1.28994 48.1984C1.28464 45.9396 2.1525 43.7682 3.70825 42.1478C5.264 40.5273 7.38436 39.5862 9.61667 39.5254Z" fill="white"/>
<path d="M33.9169 38.2003C31.3414 38.2643 28.8935 39.3471 27.0985 41.2164C25.3036 43.0857 24.3049 45.5924 24.3167 48.1983C24.3064 49.5122 24.5534 50.8151 25.0434 52.032C25.5334 53.2489 26.2567 54.3556 27.1716 55.2884C28.0865 56.2212 29.1749 56.9615 30.374 57.4667C31.5732 57.972 32.8594 58.2321 34.1584 58.2321C35.4574 58.2321 36.7436 57.972 37.9427 57.4667C39.1419 56.9615 40.2303 56.2212 41.1452 55.2884C42.0601 54.3556 42.7834 53.2489 43.2734 52.032C43.7633 50.8151 44.0103 49.5122 44 48.1983C44.0061 46.8666 43.7479 45.5471 43.2408 44.3181C42.7338 43.0891 41.988 41.9755 41.0479 41.0433C40.1077 40.111 38.9921 39.3791 37.7673 38.8907C36.5424 38.4024 35.2331 38.1676 33.9169 38.2003ZM33.9259 39.5253C35.0703 39.4942 36.2092 39.6956 37.2753 40.1178C38.3413 40.5399 39.3128 41.174 40.1322 41.9827C40.9516 42.7914 41.6022 43.7582 42.0455 44.8258C42.4888 45.8935 42.7159 47.0403 42.7132 48.1983C42.7137 49.3353 42.4927 50.4613 42.0629 51.5119C41.6331 52.5626 41.0028 53.5172 40.2082 54.3214C39.4135 55.1256 38.4699 55.7636 37.4314 56.1989C36.3929 56.6341 35.2798 56.8581 34.1557 56.8581C33.0316 56.8581 31.9185 56.6341 30.88 56.1989C29.8415 55.7636 28.8979 55.1256 28.1032 54.3214C27.3086 53.5172 26.6783 52.5626 26.2485 51.5119C25.8187 50.4613 25.5977 49.3353 25.5982 48.1983C25.593 45.9393 26.4609 43.7678 28.0169 42.1473C29.5728 40.5269 31.6934 39.5859 33.9259 39.5253Z" fill="white"/>
<path d="M23.639 41.3974C23.639 41.1795 23.5967 40.9638 23.5143 40.7626C23.4319 40.5613 23.3111 40.3783 23.1589 40.2242C23.0066 40.0702 22.8258 39.9479 22.6268 39.8645C22.4278 39.7812 22.2146 39.7383 21.9992 39.7383C21.7838 39.7383 21.5705 39.7812 21.3715 39.8645C21.1726 39.9479 20.9918 40.0702 20.8395 40.2242C20.6872 40.3783 20.5664 40.5613 20.4841 40.7626C20.4017 40.9638 20.3593 41.1795 20.3594 41.3974C20.3593 41.6152 20.4017 41.831 20.4841 42.0323C20.5664 42.2336 20.6872 42.4165 20.8395 42.5706C20.9918 42.7247 21.1726 42.8469 21.3715 42.9303C21.5705 43.0137 21.7838 43.0565 21.9992 43.0565C22.2146 43.0565 22.4278 43.0137 22.6268 42.9303C22.8258 42.8469 23.0066 42.7247 23.1589 42.5706C23.3111 42.4165 23.4319 42.2336 23.5143 42.0323C23.5967 41.831 23.639 41.6152 23.639 41.3974Z" fill="white"/>
<path d="M8.15205 26.1534L2.11133 41.0311C3.32974 39.6863 4.87043 38.6821 6.58457 38.1155C8.2987 37.5489 10.1283 37.439 11.8967 37.7965C13.6651 38.154 15.3124 38.9669 16.6795 40.1564C18.0466 41.3459 19.0874 42.8719 19.7011 44.587L19.7789 28.1418C19.7814 27.7253 19.6973 27.313 19.5321 26.9316C19.0591 25.8434 18.3005 24.907 17.3386 24.224C16.3767 23.541 15.2483 23.1376 14.0757 23.0574C12.9032 22.9772 11.7313 23.2234 10.6873 23.7692C9.64325 24.315 8.76693 25.1395 8.1534 26.1534H8.15205Z" fill="white"/>
<path d="M11.1914 22.8338L11.8424 21.3048C12.184 20.4993 12.7901 19.8378 13.5582 19.4321C14.3263 19.0265 15.2094 18.9014 16.0581 19.0782C16.9068 19.2549 17.6692 19.7225 18.2164 20.4021C18.7636 21.0817 19.0621 21.9316 19.0614 22.8081V24.9402C18.1234 23.8126 16.8642 23.0052 15.4557 22.6282C14.0472 22.2512 12.5581 22.323 11.1914 22.8338Z" fill="white"/>
<path d="M35.8443 26.1534C35.2308 25.1395 34.3544 24.315 33.3104 23.7692C32.2664 23.2234 31.0945 22.9772 29.922 23.0574C28.7494 23.1376 27.621 23.541 26.6591 24.224C25.6972 24.907 24.9386 25.8434 24.4655 26.9316C24.3004 27.313 24.2163 27.7253 24.2188 28.1418L24.2999 44.587C24.9139 42.8723 25.9546 41.3468 27.3215 40.1577C28.6885 38.9685 30.3355 38.156 32.1034 37.7985C33.8714 37.441 35.7007 37.5506 37.4145 38.1169C39.1284 38.6831 40.6689 39.6869 41.8874 41.0311L35.8443 26.1534Z" fill="white"/>
<path d="M24.9453 22.8081V24.9403C25.8831 23.8131 27.1418 23.0061 28.5497 22.6292C29.9577 22.2522 31.4463 22.3236 32.8126 22.8338L32.1619 21.3048C31.8194 20.5008 31.2132 19.8409 30.4457 19.4363C29.6781 19.0317 28.7961 18.9072 27.9484 19.0838C27.1006 19.2604 26.339 19.7272 25.792 20.4057C25.2449 21.0841 24.9459 21.9327 24.9453 22.8081Z" fill="white"/>
<path d="M23.6319 39.7815L23.588 31.1058C23.588 30.6793 23.4204 30.2702 23.1222 29.9685C22.824 29.6669 22.4196 29.4974 21.9979 29.4974C21.5761 29.4974 21.1717 29.6669 20.8735 29.9685C20.5753 30.2702 20.4077 30.6793 20.4077 31.1058L20.3672 39.7815C20.5798 39.5619 20.8336 39.3874 21.1138 39.2683C21.394 39.1491 21.6948 39.0878 21.9987 39.0878C22.3026 39.0878 22.6035 39.1491 22.8836 39.2683C23.1638 39.3874 23.4176 39.5619 23.6302 39.7815H23.6319Z" fill="white"/>
</svg>
