<svg width="62" height="73" viewBox="0 0 62 73" fill="none" xmlns="http://www.w3.org/2000/svg">
<path fill-rule="evenodd" clip-rule="evenodd" d="M32.4043 1.76997C40.4304 -0.346906 51.0767 -1.71479 56.5166 4.61337C62.178 11.1992 55.7008 21.4893 56.7946 30.1427C57.5864 36.4065 62.3131 41.5577 61.9836 47.8636C61.5808 55.5703 60.7 64.3943 54.7516 69.2342C48.7616 74.1078 39.9654 73.3484 32.4043 71.9302C25.7715 70.6861 20.818 65.8651 15.3681 61.8471C9.93154 57.8389 2.83397 55.0111 0.705357 48.5596C-1.42714 42.0963 1.6917 35.1786 4.53008 28.9988C7.08203 23.4426 11.6207 19.5625 15.979 15.3051C21.1859 10.2188 25.3972 3.6181 32.4043 1.76997Z" fill="#323232"/>
<path d="M28.4658 27.1889V10.8515L30.5577 10.8254C31.0789 10.8183 31.4959 10.3918 31.4959 9.87064C31.4911 9.34944 31.0671 8.9301 30.5482 8.9301H14.6207C14.597 8.9301 14.5543 8.92773 14.5543 8.92773C14.5306 8.92773 14.5093 8.9301 14.488 8.9301H11.4579C10.9343 8.9301 10.5102 9.35654 10.5102 9.87775C10.5102 10.399 10.9367 10.8254 11.4579 10.8254H13.6019L13.538 27.1865C4.45952 31.0055 -0.693312 40.7497 1.50523 50.1267C3.62796 59.1815 11.818 65.7392 20.9936 65.7392C21.0149 65.7392 21.0386 65.7392 21.0599 65.7392C30.3303 65.7036 38.5345 58.9943 40.5601 49.7879C42.5928 40.5697 37.4139 30.97 28.4658 27.1889ZM14.8244 28.7099C15.1916 28.5725 15.4309 28.2195 15.4333 27.8309L15.4949 10.8254H26.5681V27.8262C26.5681 28.2171 26.8121 28.5677 27.1746 28.7099C33.1235 31.0079 36.7269 35.5898 38.2408 40.4631C37.106 41.5221 29.7806 47.7457 19.8422 42.9293C19.6858 42.8535 19.565 42.8037 19.4489 42.7564C19.4537 42.6711 19.4726 42.5858 19.4726 42.4981C19.4608 40.02 17.5205 38.0703 15.0376 38.0584C12.8343 38.0584 11.0907 39.5083 10.6737 41.5481C7.02053 42.0504 4.42398 43.7869 2.94565 45.1444C3.2181 38.7004 6.96841 31.7329 14.8244 28.7099ZM17.5773 42.51C17.5821 43.1804 17.3262 43.8106 16.8547 44.2821C16.3762 44.7654 15.7318 45.0284 15.0424 45.0284H15.0353C14.3032 45.026 13.6422 44.763 13.1731 44.2868C12.7135 43.8177 12.4624 43.1662 12.4742 42.4555C12.4932 41.008 13.5735 39.9584 15.0471 39.9584C16.4828 39.9632 17.5702 41.0601 17.5773 42.51ZM38.7099 49.3804C36.8714 57.7292 29.4442 63.8131 21.0528 63.8415C21.0315 63.8415 21.0102 63.8415 20.9936 63.8415C12.6898 63.8415 5.2745 57.8998 3.35314 49.6931C3.21099 49.0819 3.11623 48.4517 3.04516 47.8121C3.30339 47.4685 5.88573 44.2229 10.6903 43.46C10.8632 44.2773 11.2423 45.0212 11.8227 45.6135C12.6496 46.4546 13.7891 46.9213 15.0305 46.926C15.0305 46.926 15.04 46.926 15.0424 46.926C16.2388 46.926 17.3617 46.4617 18.198 45.6183C18.4989 45.315 18.7311 44.9644 18.9301 44.5995C18.9609 44.6138 18.9822 44.6209 19.0177 44.6374C21.9934 46.0779 24.7937 46.6275 27.3239 46.6275C32.6923 46.6275 36.7956 44.1731 38.7572 42.5621C39.1955 44.9028 39.1813 47.2482 38.7099 49.3804Z" fill="white"/>
<path d="M25.693 49.3406C24.1554 49.3406 22.9377 50.5393 22.9259 52.0698C22.914 53.5979 24.1365 54.8582 25.6456 54.8819C25.648 54.8819 25.6835 54.8819 25.6883 54.8819C27.2187 54.8819 28.4649 53.6453 28.4672 52.1219C28.4743 50.582 27.2708 49.3595 25.693 49.3406ZM25.6883 53.2259V54.0551L25.6693 53.2259C25.0675 53.2165 24.5795 52.7024 24.5819 52.084C24.589 51.4751 25.0747 50.999 25.7072 50.999C26.3492 51.0084 26.8136 51.4775 26.8112 52.1172C26.8089 52.7379 26.3161 53.2259 25.6883 53.2259Z" fill="white"/>
<path d="M22.8731 41.6095C23.4465 42.1852 24.2046 42.5027 25.0053 42.5027C25.0053 42.5027 25.0101 42.5027 25.0124 42.5027C26.6448 42.5003 27.981 41.1618 27.9904 39.5152C27.9952 38.6979 27.6896 37.9374 27.1281 37.3735C26.569 36.8121 25.8132 36.5017 24.9864 36.5017C23.3422 36.5064 21.9989 37.8426 21.9942 39.4797C21.9895 40.2757 22.3022 41.0338 22.8731 41.6095ZM25.0006 38.1577C25.3654 38.1577 25.7042 38.2951 25.9506 38.5415C26.197 38.7903 26.3344 39.1338 26.332 39.5057C26.3273 40.2425 25.7327 40.8419 25.0053 40.8443L25.003 41.6735V40.8443C24.6476 40.8443 24.3065 40.6974 24.0458 40.4368C23.79 40.1786 23.6478 39.8398 23.6478 39.4844C23.6549 38.7571 24.2543 38.1625 25.0006 38.1577Z" fill="white"/>
<path d="M20.0618 32.3064C20.7655 32.3064 21.4217 32.034 21.9121 31.5412C22.4049 31.0413 22.675 30.3709 22.6702 29.653C22.6608 28.2055 21.5283 27.0659 20.0784 27.0588C18.6025 27.0588 17.4392 28.2008 17.4297 29.6601C17.425 30.3614 17.6975 31.0224 18.1973 31.527C18.6996 32.0292 19.3606 32.3064 20.0618 32.3064ZM20.0832 28.4803C20.7441 28.4827 21.2464 28.992 21.2511 29.6625C21.2535 30.0013 21.1279 30.3093 20.9029 30.5391C20.4646 30.9845 19.6757 30.9916 19.209 30.5249C18.9768 30.2903 18.8512 29.9871 18.8536 29.6696C18.8583 28.992 19.3843 28.4803 20.0832 28.4803Z" fill="white"/>
<path d="M23.5911 5.2476C24.2948 5.2476 24.951 4.97515 25.4414 4.48237C25.9342 3.98249 26.2043 3.31203 26.1995 2.59418C26.1901 1.14665 25.0576 0.00710735 23.6077 0C22.1318 0 20.9685 1.14191 20.959 2.60129C20.9543 3.30255 21.2268 3.96353 21.7266 4.46815C22.2289 4.97041 22.8899 5.2476 23.5911 5.2476ZM23.6125 1.42147C24.2734 1.42384 24.7757 1.9332 24.7804 2.60366C24.7828 2.94244 24.6572 3.25043 24.4322 3.48023C23.9939 3.92563 23.205 3.93274 22.7383 3.46602C22.5061 3.23148 22.3805 2.92823 22.3829 2.61077C22.3876 1.9332 22.9136 1.42147 23.6125 1.42147Z" fill="white"/>
<path d="M18.7392 54.6587C17.1969 54.6587 15.9578 55.8527 15.9247 57.3761C15.8868 58.9326 17.1211 60.2332 18.6705 60.2735C18.6776 60.2735 18.7345 60.2759 18.7416 60.2759C20.2673 60.2759 21.5229 59.0297 21.5419 57.4945C21.5513 56.7293 21.2718 56.0138 20.7482 55.4831C20.227 54.9548 19.5186 54.6611 18.7392 54.6587ZM18.7416 58.6175H18.7108C18.0829 58.6009 17.5665 58.0513 17.5783 57.414C17.5949 56.7885 18.0924 56.3147 18.7439 56.3147C19.0638 56.3171 19.3552 56.4355 19.5636 56.6464C19.7721 56.8596 19.8858 57.1557 19.8835 57.4756C19.874 58.1081 19.3623 58.6175 18.7416 58.6175Z" fill="white"/>
</svg>
