<svg width="62" height="73" viewBox="0 0 62 73" fill="none" xmlns="http://www.w3.org/2000/svg">
<path fill-rule="evenodd" clip-rule="evenodd" d="M32.4043 1.76997C40.4304 -0.346906 51.0767 -1.71479 56.5166 4.61337C62.178 11.1992 55.7008 21.4893 56.7946 30.1427C57.5864 36.4065 62.3131 41.5577 61.9836 47.8636C61.5808 55.5703 60.7 64.3943 54.7516 69.2342C48.7616 74.1078 39.9654 73.3484 32.4043 71.9302C25.7715 70.6861 20.818 65.8651 15.3681 61.8471C9.93154 57.8389 2.83397 55.0111 0.705357 48.5596C-1.42714 42.0963 1.6917 35.1786 4.53008 28.9988C7.08203 23.4426 11.6207 19.5625 15.979 15.3051C21.1859 10.2188 25.3972 3.6181 32.4043 1.76997Z" fill="#323232"/>
<path d="M53.8746 8.56573C53.8245 8.43099 53.746 8.30863 53.6444 8.20699C53.5427 8.10534 53.4204 8.02681 53.2856 7.97673C52.8736 7.82373 43.0396 4.29273 32.7966 11.6767C27.7766 15.2897 23.0506 21.3307 19.5406 26.5407C16.2782 26.4221 13.0299 27.0274 10.0292 28.3133C7.02855 29.5992 4.34987 31.5336 2.18562 33.9777C2.0515 34.1263 1.96504 34.3117 1.93744 34.5099C1.90984 34.7082 1.94235 34.9101 2.03078 35.0897C2.11921 35.2692 2.25948 35.4181 2.43346 35.5171C2.60743 35.616 2.80709 35.6605 3.00662 35.6447C3.08162 35.6387 10.5396 35.0887 13.8196 37.6517L18.3026 42.1307L14.3586 46.0737C14.171 46.2614 14.0656 46.5159 14.0656 46.7812C14.0656 47.0466 14.171 47.3011 14.3586 47.4887C14.5463 47.6764 14.8008 47.7818 15.0661 47.7818C15.3315 47.7818 15.586 47.6764 15.7736 47.4887L19.7206 43.5487L24.1996 48.0307C26.7626 51.3107 26.2126 58.7687 26.2066 58.8437C26.1909 59.0433 26.2353 59.2429 26.3343 59.4169C26.4333 59.5909 26.5821 59.7311 26.7617 59.8196C26.9412 59.908 27.1432 59.9405 27.3414 59.9129C27.5397 59.8853 27.7251 59.7989 27.8736 59.6647C30.3172 57.5005 32.2514 54.8221 33.5372 51.8218C34.8231 48.8216 35.4287 45.5738 35.3106 42.3117C40.5206 38.8007 46.5616 34.0747 50.1796 29.0547C57.5596 18.8117 54.0276 8.97873 53.8746 8.56573ZM18.2206 28.5417C16.2776 31.5637 14.8326 34.1167 14.1026 35.4507C11.5166 33.9847 7.85262 33.6397 5.41162 33.5937C8.96982 30.4812 13.4957 28.6961 18.2206 28.5417ZM28.2546 56.4417C28.2096 54.0007 27.8636 50.3357 26.3976 47.7497C27.7326 47.0187 30.2886 45.5727 33.3136 43.6277C33.1673 48.3554 31.3796 52.8846 28.2576 56.4377L28.2546 56.4417ZM48.5546 27.8897C42.3976 36.4307 28.3206 44.4157 25.1456 46.1487L21.1306 42.1307L27.8706 35.3907C27.9661 35.2985 28.0423 35.1881 28.0947 35.0661C28.1471 34.9441 28.1747 34.8129 28.1759 34.6801C28.177 34.5474 28.1517 34.4157 28.1014 34.2928C28.0512 34.1699 27.9769 34.0582 27.883 33.9643C27.7891 33.8704 27.6775 33.7962 27.5546 33.7459C27.4317 33.6956 27.3 33.6703 27.1672 33.6715C27.0344 33.6726 26.9032 33.7002 26.7812 33.7526C26.6592 33.805 26.5489 33.8812 26.4566 33.9767L19.7206 40.7207L15.7066 36.7057C17.4356 33.5307 25.4206 19.4537 33.9666 13.2957C36.5374 11.3815 39.5037 10.0663 42.6484 9.44636C45.7931 8.82642 49.0366 8.91743 52.1416 9.71273C52.9427 12.817 53.0364 16.0616 52.4159 19.207C51.7955 22.3523 50.4766 25.3182 48.5566 27.8857L48.5546 27.8897ZM40.0276 16.4207C38.7784 16.421 37.568 16.8544 36.6025 17.647C35.637 18.4396 34.9761 19.5425 34.7325 20.7677C34.4889 21.9929 34.6776 23.2646 35.2665 24.3663C35.8554 25.468 36.808 26.3314 37.9621 26.8095C39.1161 27.2877 40.4002 27.3509 41.5957 26.9884C42.7911 26.626 43.8239 25.8603 44.5182 24.8218C45.2124 23.7833 45.5251 22.5362 45.403 21.293C45.2809 20.0498 44.7316 18.8874 43.8486 18.0037C43.3481 17.5002 42.7527 17.101 42.0968 16.8293C41.4409 16.5576 40.7376 16.4187 40.0276 16.4207ZM42.4346 24.2307C41.7863 24.8497 40.9244 25.195 40.0281 25.195C39.1318 25.195 38.2699 24.8497 37.6216 24.2307C37.1468 23.755 36.8236 23.1491 36.693 22.4898C36.5623 21.8304 36.63 21.1471 36.8876 20.5263C37.1451 19.9054 37.5809 19.3748 38.1399 19.0015C38.6988 18.6281 39.3559 18.4289 40.0281 18.4289C40.7003 18.4289 41.3574 18.6281 41.9164 19.0015C42.4753 19.3748 42.9111 19.9054 43.1687 20.5263C43.4262 21.1471 43.4939 21.8304 43.3633 22.4898C43.2326 23.1491 42.9095 23.755 42.4346 24.2307ZM10.6516 52.6137L3.75162 59.5137C3.56314 59.696 3.31061 59.797 3.04841 59.7949C2.78621 59.7928 2.53532 59.6878 2.34978 59.5026C2.16424 59.3173 2.05889 59.0665 2.05643 58.8043C2.05397 58.5421 2.15459 58.2895 2.33662 58.1007L9.23662 51.2007C9.32886 51.1052 9.43921 51.029 9.56121 50.9766C9.68322 50.9242 9.81444 50.8966 9.94722 50.8955C10.08 50.8943 10.2117 50.9196 10.3346 50.9699C10.4575 51.0202 10.5691 51.0944 10.663 51.1883C10.7569 51.2822 10.8312 51.3939 10.8814 51.5168C10.9317 51.6397 10.957 51.7714 10.9559 51.9041C10.9547 52.0369 10.9271 52.1681 10.8747 52.2901C10.8223 52.4121 10.7461 52.5225 10.6506 52.6147L10.6516 52.6137ZM8.29062 45.1697L1.78062 53.1427C1.69803 53.2459 1.59582 53.3316 1.47989 53.3951C1.36397 53.4585 1.23663 53.4983 1.10522 53.5122C0.973821 53.5261 0.840966 53.5138 0.714337 53.4761C0.587707 53.4383 0.469814 53.3758 0.36747 53.2923C0.265126 53.2087 0.180362 53.1056 0.118074 52.9891C0.0557871 52.8726 0.0172129 52.7449 0.00458046 52.6133C-0.008052 52.4818 0.00550802 52.3491 0.044477 52.2228C0.0834459 52.0965 0.147051 51.9793 0.231616 51.8777L6.74162 43.9057C6.91172 43.7084 7.15214 43.5852 7.4117 43.5624C7.67125 43.5397 7.92944 43.6191 8.13131 43.7838C8.33318 43.9486 8.46279 44.1856 8.49254 44.4444C8.52229 44.7033 8.44985 44.9635 8.29062 45.1697ZM18.0906 53.7027C18.2584 53.9081 18.3376 54.1718 18.311 54.4356C18.2844 54.6995 18.154 54.942 17.9486 55.1097L9.97662 61.6197C9.77089 61.7844 9.50846 61.8613 9.24638 61.8336C8.9843 61.8058 8.74377 61.6758 8.57707 61.4716C8.41037 61.2675 8.33099 61.0058 8.35619 60.7435C8.38138 60.4812 8.50912 60.2394 8.71162 60.0707L16.6846 53.5607C16.8898 53.3942 17.1525 53.3157 17.4154 53.3423C17.6783 53.3689 17.92 53.4985 18.0876 53.7027H18.0906Z" fill="white"/>
</svg>
