<svg width="19" height="18" viewBox="0 0 19 18" fill="none" xmlns="http://www.w3.org/2000/svg">
<g clip-path="url(#clip0)">
<path d="M18.8221 18.0002V17.9994H18.8266V11.3979C18.8266 8.16841 18.1314 5.68066 14.3559 5.68066C12.5409 5.68066 11.3229 6.67666 10.8256 7.62091H10.7731V5.98216H7.19336V17.9994H10.9209V12.0489C10.9209 10.4822 11.2179 8.96716 13.1581 8.96716C15.0699 8.96716 15.0984 10.7552 15.0984 12.1494V18.0002H18.8221Z" fill="white"/>
<path d="M1.12305 5.98291H4.85505V18.0002H1.12305V5.98291Z" fill="white"/>
<path d="M2.98767 0C1.79442 0 0.826172 0.96825 0.826172 2.1615C0.826172 3.35475 1.79442 4.34325 2.98767 4.34325C4.18092 4.34325 5.14917 3.35475 5.14917 2.1615C5.14842 0.96825 4.18017 0 2.98767 0V0Z" fill="white"/>
</g>
<defs>
<clipPath id="clip0">
<rect x="0.826172" width="18" height="18" fill="white"/>
</clipPath>
</defs>
</svg>
