<svg width="25" height="24" viewBox="0 0 25 24" fill="none" xmlns="http://www.w3.org/2000/svg">
<g clip-path="url(#clip0)">
<path d="M22.9112 4.733L24.8262 2.901V2.5H18.1922L13.4642 14.268L8.08517 2.5H1.12917V2.901L3.36617 5.594C3.58417 5.793 3.69817 6.084 3.66917 6.377V16.96C3.73817 17.341 3.61417 17.733 3.34617 18.01L0.826172 21.064V21.46H7.97117V21.059L5.45117 18.01C5.17817 17.732 5.04917 17.347 5.10417 16.96V7.806L11.3762 21.465H12.1052L17.4982 7.806V18.687C17.4982 18.974 17.4982 19.033 17.3102 19.221L15.3702 21.098V21.5H24.7822V21.099L22.9122 19.268C22.7482 19.144 22.6632 18.936 22.6982 18.734V5.267C22.6632 5.064 22.7472 4.856 22.9112 4.733Z" fill="white"/>
</g>
<defs>
<clipPath id="clip0">
<rect x="0.826172" width="24" height="24" fill="white"/>
</clipPath>
</defs>
</svg>
