<svg width="1437" height="1023" viewBox="0 0 1437 1023" fill="none" xmlns="http://www.w3.org/2000/svg">
<mask id="mask0" mask-type="alpha" maskUnits="userSpaceOnUse" x="0" y="0" width="1440" height="1023">
<rect width="1440" height="1023" fill="#C4C4C4"/>
</mask>
<g mask="url(#mask0)">
<path fill-rule="evenodd" clip-rule="evenodd" d="M69.5781 -282.596H68.5781V1157.4H69.5781V-282.596ZM130.578 -282.596H129.578V1157.4H130.578V-282.596ZM190.578 -282.596H191.578V1157.4H190.578V-282.596ZM252.578 -282.596H251.578V1157.4H252.578V-282.596ZM312.578 -282.596H313.578V1157.4H312.578V-282.596ZM374.578 -282.596H373.578V1157.4H374.578V-282.596ZM434.578 -282.596H435.578V1157.4H434.578V-282.596ZM496.578 -282.596H495.578V1157.4H496.578V-282.596ZM556.578 -282.596H557.578V1157.4H556.578V-282.596ZM618.578 -282.596H617.578V1157.4H618.578V-282.596ZM678.578 -282.596H679.578V1157.4H678.578V-282.596ZM740.578 -282.596H739.578V1157.4H740.578V-282.596ZM800.578 -282.596H801.578V1157.4H800.578V-282.596ZM862.578 -282.596H861.578V1157.4H862.578V-282.596ZM922.578 -282.596H923.578V1157.4H922.578V-282.596ZM984.578 -282.596H983.578V1157.4H984.578V-282.596ZM1044.58 -282.596H1045.58V1157.4H1044.58V-282.596ZM1106.58 -282.596H1105.58V1157.4H1106.58V-282.596ZM1166.58 -282.596H1167.58V1157.4H1166.58V-282.596ZM1228.58 -282.596H1227.58V1157.4H1228.58V-282.596ZM1288.58 -282.596H1289.58V1157.4H1288.58V-282.596ZM1350.58 -282.596H1349.58V1157.4H1350.58V-282.596ZM1410.58 -282.596H1411.58V1157.4H1410.58V-282.596ZM1472.58 -282.596H1471.58V1157.4H1472.58V-282.596Z" fill="#2B2C33"/>
<rect x="7.57812" y="-336.596" width="1" height="1440" fill="#2B2C33"/>
<path fill-rule="evenodd" clip-rule="evenodd" d="M1439.58 1124.4L1439.58 1123.4L-0.421936 1123.4L-0.421936 1124.4L1439.58 1124.4ZM1439.58 1062.4L1439.58 1063.4L-0.422056 1063.4L-0.422056 1062.4L1439.58 1062.4ZM1439.58 1002.4L1439.58 1001.4L-0.422053 1001.4L-0.422053 1002.4L1439.58 1002.4ZM1439.58 940.403L1439.58 941.403L-0.42205 941.403L-0.42205 940.403L1439.58 940.403ZM1439.58 880.403L1439.58 879.403L-0.422048 879.403L-0.422048 880.403L1439.58 880.403ZM1439.58 818.403L1439.58 819.403L-0.422045 819.403L-0.422045 818.403L1439.58 818.403ZM1439.58 758.403L1439.58 757.403L-0.422042 757.403L-0.422042 758.403L1439.58 758.403ZM1439.58 696.403L1439.58 697.403L-0.42204 697.403L-0.42204 696.403L1439.58 696.403ZM1439.58 636.403L1439.58 635.403L-0.422037 635.403L-0.422037 636.403L1439.58 636.403ZM1439.58 574.403L1439.58 575.403L-0.422034 575.403L-0.422034 574.403L1439.58 574.403ZM1439.58 514.403L1439.58 513.403L-0.422032 513.403L-0.422032 514.403L1439.58 514.403ZM1439.58 452.403L1439.58 453.403L-0.422029 453.403L-0.422029 452.403L1439.58 452.403ZM1439.58 392.403L1439.58 391.403L-0.422026 391.403L-0.422026 392.403L1439.58 392.403ZM1439.58 330.403L1439.58 331.403L-0.422024 331.403L-0.422024 330.403L1439.58 330.403ZM1439.58 270.403L1439.58 269.403L-0.422021 269.403L-0.422021 270.403L1439.58 270.403ZM1439.58 208.403L1439.58 209.403L-0.422018 209.403L-0.422018 208.403L1439.58 208.403ZM1439.58 148.403L1439.58 147.403L-0.422016 147.403L-0.422016 148.403L1439.58 148.403ZM1439.58 86.4032L1439.58 87.4032L-0.422013 87.4031L-0.422013 86.4031L1439.58 86.4032ZM1439.58 26.4032L1439.58 25.4032L-0.42201 25.4031L-0.42201 26.4031L1439.58 26.4032ZM1439.58 -35.5968L1439.58 -34.5968L-0.422008 -34.5969L-0.422008 -35.5969L1439.58 -35.5968ZM1439.58 -95.5968L1439.58 -96.5968L-0.422005 -96.5969L-0.422005 -95.5969L1439.58 -95.5968ZM1439.58 -157.597L1439.58 -156.597L-0.422002 -156.597L-0.422002 -157.597L1439.58 -157.597ZM1439.58 -217.597L1439.58 -218.597L-0.422 -218.597L-0.422 -217.597L1439.58 -217.597ZM1439.58 -278.597L1439.58 -279.597L-0.421997 -279.597L-0.421997 -278.597L1439.58 -278.597Z" fill="#2B2C33"/>
</g>
</svg>
