<svg width="45" height="34" viewBox="0 0 45 34" fill="none" xmlns="http://www.w3.org/2000/svg">
<path d="M6.0904 21.8698V33.75H0V0H10.6639C12.8525 0 14.7468 0.264523 16.3467 0.793569C17.9467 1.32262 19.2674 2.06172 20.3089 3.01089C21.3503 3.96006 22.1201 5.09596 22.6182 6.41857C23.1163 7.74118 23.3654 9.18828 23.3654 10.7599C23.3654 12.3937 23.1012 13.8952 22.573 15.2645C22.0447 16.6183 21.2522 17.7853 20.1957 18.7656C19.1391 19.7459 17.8184 20.5083 16.2335 21.0529C14.6486 21.5975 12.7921 21.8698 10.6639 21.8698H6.0904ZM6.0904 16.9684H10.6639C11.7808 16.9684 12.7544 16.8283 13.5845 16.5482C14.4147 16.2526 15.1015 15.8402 15.6448 15.3112C16.1882 14.7666 16.5958 14.1131 16.8675 13.3506C17.1391 12.5726 17.275 11.709 17.275 10.7599C17.275 9.85737 17.1391 9.04046 16.8675 8.30913C16.5958 7.5778 16.1882 6.95539 15.6448 6.44191C15.1015 5.92842 14.4147 5.53942 13.5845 5.2749C12.7544 4.99481 11.7808 4.85477 10.6639 4.85477H6.0904V16.9684Z" fill="white"/>
<mask id="mask0" mask-type="alpha" maskUnits="userSpaceOnUse" x="25" y="4" width="20" height="30">
<path d="M32.146 17.6959C33.297 13.4519 34.6719 10.3341 36.2706 8.34267C37.9013 6.31859 39.4041 5.30655 40.779 5.30655C42.1858 5.30655 43.241 5.84521 43.9444 6.92255C44.6478 7.96724 44.9995 9.33839 44.9995 11.036C44.9995 12.701 44.504 14.2354 43.5128 15.6392C42.5535 17.043 41.2266 17.7449 39.532 17.7449C39.0844 17.7449 38.5568 17.6143 37.9493 17.3531C38.9405 16.0799 39.4361 14.5455 39.4361 12.75C39.4361 11.7053 39.0204 11.1829 38.1891 11.1829C37.5816 11.1829 36.9261 11.6236 36.2227 12.5051C35.5192 13.3539 34.8478 14.5455 34.2083 16.0799C33.5688 17.5816 33.0253 19.5241 32.5776 21.9073C32.162 24.2579 31.9541 26.7716 31.9541 29.4486C31.9541 29.7751 32.0341 31.1626 32.1939 33.6111C31.1708 33.6764 30.5153 33.709 30.2275 33.709C28.405 33.709 27.0941 33.3826 26.2947 32.7296C25.4954 32.0767 25.0957 30.9994 25.0957 29.4976C25.0957 28.8447 25.4314 26.3309 26.1029 21.9563C26.7743 17.5816 27.1101 14.1048 27.1101 11.5257C27.1101 8.91398 26.8383 6.51447 26.2947 4.32715C28.6288 5.07802 30.2595 6.15535 31.1868 7.55916C32.114 8.93031 32.5776 10.5463 32.5776 12.4072C32.5776 14.2354 32.4337 15.9983 32.146 17.6959Z" fill="black"/>
</mask>
<g mask="url(#mask0)">
<mask id="mask1" mask-type="alpha" maskUnits="userSpaceOnUse" x="9" y="-1" width="53" height="39">
<path d="M9.75589 12.1257C8.48506 8.84952 10.6307 5.25115 14.1171 4.81155L55.2031 -0.36886C58.4296 -0.77568 61.2817 1.73938 61.2817 4.99143V32.0968C61.2817 35.2816 58.541 37.7753 55.3704 37.4755L14.8443 33.6432C11.1367 33.2925 8.88723 29.3841 10.4466 26.0022L12.0356 22.556C12.6486 21.2264 12.6958 19.7049 12.1663 18.3399L9.75589 12.1257Z" fill="#EC4444"/>
</mask>
<g mask="url(#mask1)">
<path d="M66.0098 13.7224L5.22902 23.1771L5.22902 4.26758L66.0098 13.7224Z" fill="#EAB313"/>
<path d="M5.23047 26.5535L66.0112 17.0987L66.0112 36.0083L5.23047 26.5535Z" fill="#EA4335"/>
<path d="M66.0098 11.0207L5.22902 20.4755L5.22902 1.56592L66.0098 11.0207Z" fill="#FBBC05"/>
<path d="M5.23047 4.26738L66.0112 -5.1874L66.0112 13.7222L5.23047 4.26738Z" fill="#34A853"/>
<path d="M5.23047 0.890914L66.0112 -8.56387L66.0112 10.3457L5.23047 0.890914Z" fill="#2E9549"/>
<path d="M5.23047 23.177L66.0112 13.7223L66.0112 32.6318L5.23047 23.177Z" fill="#EA4335"/>
<path d="M5.23047 26.5535L66.0112 17.0987L66.0112 36.0083L5.23047 26.5535Z" fill="#FA4C3D"/>
<path d="M82.8926 34.6576L5.22829 46.8138L5.22829 22.5015L82.8926 34.6576Z" fill="#2596E9"/>
<path d="M82.8926 37.3593L5.22829 49.5154L5.22829 25.2031L82.8926 37.3593Z" fill="#25A0F9"/>
</g>
</g>
</svg>
