<svg width="62" height="73" viewBox="0 0 62 73" fill="none" xmlns="http://www.w3.org/2000/svg">
<path fill-rule="evenodd" clip-rule="evenodd" d="M32.4043 1.76997C40.4304 -0.346906 51.0767 -1.71479 56.5166 4.61337C62.178 11.1992 55.7008 21.4893 56.7946 30.1427C57.5864 36.4065 62.3131 41.5577 61.9836 47.8636C61.5808 55.5703 60.7 64.3943 54.7516 69.2342C48.7616 74.1078 39.9654 73.3484 32.4043 71.9302C25.7715 70.6861 20.818 65.8651 15.3681 61.8471C9.93154 57.8389 2.83397 55.0111 0.705357 48.5596C-1.42714 42.0963 1.6917 35.1786 4.53008 28.9988C7.08203 23.4426 11.6207 19.5625 15.979 15.3051C21.1859 10.2188 25.3972 3.6181 32.4043 1.76997Z" fill="#CEE7F8"/>
<path d="M32.6211 14.5088C28.7729 14.0495 24.9391 15.2599 22.0694 17.8109C19.1977 20.364 17.5508 24.0282 17.5508 27.862C17.5508 30.7564 18.4591 33.5144 20.1763 35.8378C22.5184 39.0075 23.7577 42.4482 23.7577 45.7875V46.4826C23.7577 47.0537 24.2211 47.5171 24.7922 47.5171H37.206C37.777 47.5171 38.2404 46.9316 38.2404 46.3606C38.2404 42.4709 39.4011 38.8792 41.5094 36.2454C43.8928 33.2661 44.8777 29.5192 44.2777 25.6978C43.3673 19.9026 38.4639 15.1957 32.6211 14.5088ZM39.8935 34.9523C37.6797 37.7185 36.3825 41.3806 36.1963 45.4482H32.0335V40.704L33.8004 38.9371C34.2039 38.5337 34.2039 37.8778 33.8004 37.4744C33.397 37.0709 32.7411 37.0709 32.3377 37.4744L30.9991 38.813L29.6625 37.4764C29.2591 37.073 28.6032 37.073 28.1997 37.4764C27.7963 37.8799 27.7963 38.5357 28.1997 38.9392L29.9666 40.7061V45.4482H25.8246C25.7439 41.7716 24.3722 38.0309 21.8418 34.6068C20.3894 32.6433 19.6218 30.3095 19.6218 27.862C19.6218 24.6178 21.0163 21.5185 23.4473 19.3564C25.9094 17.1675 29.0853 16.1744 32.3811 16.5633C37.3239 17.1447 41.468 21.1213 42.2356 26.0185C42.7425 29.2585 41.9108 32.4302 39.8935 34.9523Z" fill="#252C54"/>
<path d="M31.0013 12.3448C31.5723 12.3448 32.0358 11.8814 32.0358 11.3103V3.03448C32.0358 2.46345 31.5723 2 31.0013 2C30.4302 2 29.9668 2.46345 29.9668 3.03448V11.3103C29.9668 11.8814 30.4302 12.3448 31.0013 12.3448Z" fill="#252C54"/>
<path d="M52.4231 10.5779C52.0197 10.1744 51.3638 10.1744 50.9604 10.5779L45.1073 16.431C44.7038 16.8344 44.7038 17.4903 45.1073 17.8937C45.31 18.0965 45.5749 18.1958 45.8397 18.1958C46.1045 18.1958 46.3693 18.0944 46.5721 17.8937L52.4252 12.0406C52.8266 11.6372 52.8266 10.9834 52.4231 10.5779Z" fill="#252C54"/>
<path d="M11.0427 10.5779C10.6392 10.1744 9.98338 10.1744 9.57993 10.5779C9.17648 10.9813 9.17648 11.6372 9.57993 12.0406L15.433 17.8937C15.6337 18.0965 15.8986 18.1979 16.1634 18.1979C16.4282 18.1979 16.691 18.0965 16.8937 17.8937C17.2972 17.4903 17.2972 16.8344 16.8937 16.431L11.0427 10.5779Z" fill="#252C54"/>
<path d="M10.3103 30.9654H2.03448C1.46345 30.9654 1 31.4288 1 31.9999C1 32.5709 1.46345 33.0344 2.03448 33.0344H10.3103C10.8814 33.0344 11.3448 32.5709 11.3448 31.9999C11.3448 31.4288 10.8814 30.9654 10.3103 30.9654Z" fill="#252C54"/>
<path d="M59.9646 30.9654H51.6888C51.1177 30.9654 50.6543 31.4288 50.6543 31.9999C50.6543 32.5709 51.1177 33.0344 51.6888 33.0344H59.9646C60.5357 33.0344 60.9991 32.5709 60.9991 31.9999C60.9991 31.4288 60.5357 30.9654 59.9646 30.9654Z" fill="#252C54"/>
<path d="M37.2061 49.5863H24.7923C24.2213 49.5863 23.7578 50.0497 23.7578 50.6208C23.7578 51.1918 24.2213 51.6552 24.7923 51.6552H37.2061C37.7771 51.6552 38.2406 51.1918 38.2406 50.6208C38.2406 50.0497 37.7771 49.5863 37.2061 49.5863Z" fill="#252C54"/>
<path d="M37.2061 53.7242H24.7923C24.2213 53.7242 23.7578 54.1876 23.7578 54.7587C23.7578 55.3297 24.2213 55.7931 24.7923 55.7931H37.2061C37.7771 55.7931 38.2406 55.3297 38.2406 54.7587C38.2406 54.1876 37.7771 53.7242 37.2061 53.7242Z" fill="#252C54"/>
<path d="M33.0689 57.8621H28.931C28.3599 57.8621 27.8965 58.3255 27.8965 58.8966C27.8965 59.4676 28.3599 59.9311 28.931 59.9311H33.0689C33.6399 59.9311 34.1034 59.4676 34.1034 58.8966C34.1034 58.3255 33.6399 57.8621 33.0689 57.8621Z" fill="#252C54"/>
</svg>
