<svg width="62" height="73" viewBox="0 0 62 73" fill="none" xmlns="http://www.w3.org/2000/svg">
<path fill-rule="evenodd" clip-rule="evenodd" d="M32.4043 1.76997C40.4304 -0.346906 51.0767 -1.71479 56.5166 4.61337C62.178 11.1992 55.7008 21.4893 56.7946 30.1427C57.5864 36.4065 62.3131 41.5577 61.9836 47.8636C61.5808 55.5703 60.7 64.3943 54.7516 69.2342C48.7616 74.1078 39.9654 73.3484 32.4043 71.9302C25.7715 70.6861 20.818 65.8651 15.3681 61.8471C9.93154 57.8389 2.83397 55.0111 0.705357 48.5596C-1.42714 42.0963 1.6917 35.1786 4.53008 28.9988C7.08203 23.4426 11.6207 19.5625 15.979 15.3051C21.1859 10.2188 25.3972 3.6181 32.4043 1.76997Z" fill="#CEE7F8"/>
<path d="M35.3538 39.5485C35.2571 39.4517 24.4183 32.7743 22.87 22.0323V21.9356C22.87 21.8388 22.87 21.8388 22.7732 21.742C22.7732 21.6452 22.6764 21.6452 22.6764 21.5485L22.5796 21.4517C22.4829 21.3549 22.4829 21.3549 22.3861 21.3549C22.3861 21.3549 22.2893 21.3549 22.2893 21.2582C22.1925 21.2582 22.0958 21.1614 21.9022 21.1614C21.8054 21.1614 21.6119 21.1614 21.5151 21.2582C21.5151 21.2582 21.4183 21.2582 21.4183 21.3549C21.3216 21.3549 21.3216 21.4517 21.2248 21.4517L21.128 21.5485C21.128 21.6452 21.0312 21.6452 21.0312 21.742V21.8388V21.9356C19.4829 32.5807 8.64415 39.3549 8.54738 39.4517C8.06351 39.742 7.96673 40.3227 8.25706 40.8065L13.5796 49.8065H12.0312C11.4506 49.8065 11.0635 50.1936 11.0635 50.7743V54.9356C11.0635 55.5162 11.4506 55.9033 12.0312 55.9033H13.5796V60.3549C13.5796 60.9356 13.9667 61.3227 14.5474 61.3227H29.3538C29.9345 61.3227 30.3216 60.9356 30.3216 60.3549V55.9033H31.87C32.4506 55.9033 32.8377 55.5162 32.8377 54.9356V50.7743C32.8377 50.1936 32.4506 49.8065 31.87 49.8065H30.3216L35.6441 40.8065C36.0312 40.4194 35.8377 39.8388 35.3538 39.5485ZM21.999 39.4517C22.7732 39.4517 23.4506 40.1291 23.4506 40.9033C23.4506 41.6775 22.7732 42.3549 21.999 42.3549C21.2248 42.3549 20.5474 41.6775 20.5474 40.9033C20.5474 40.1291 21.128 39.4517 21.999 39.4517ZM28.3861 59.3872H15.5151V55.9033H28.3861V59.3872ZM30.999 53.9678H29.4506H14.5474H12.999V51.742H15.3216H28.6764H30.999V53.9678ZM28.0958 49.8065H15.8054L10.3861 40.613C12.4183 39.1614 17.9345 35.0001 21.0312 28.5162V37.613C19.6764 38.0001 18.6119 39.3549 18.6119 40.8065C18.6119 42.6452 20.1603 44.1936 21.999 44.1936C23.8377 44.1936 25.3861 42.6452 25.3861 40.8065C25.3861 39.2581 24.3216 38.0001 22.9667 37.613V28.5162C26.0635 34.9033 31.5796 39.1614 33.6119 40.613L28.0958 49.8065Z" fill="#252C54"/>
<path d="M36.6129 19.8065C38.4516 19.8065 40 18.2581 40 16.4194C40 14.5807 38.4516 12.9355 36.6129 12.9355C35.0645 12.9355 33.8064 14.0001 33.3226 15.3549H25.1936C24.8065 14.0001 23.5484 12.9355 22 12.9355C20.4516 12.9355 19.1935 14.0001 18.7097 15.3549H10.5806C10.1935 14.0001 8.93548 12.9355 7.3871 12.9355C5.54839 12.9355 4 14.4839 4 16.3226C4 18.1614 5.54839 19.7097 7.3871 19.7097C8.93548 19.7097 10.1935 18.6452 10.6774 17.2904H14.3548C10.871 19.4194 8.35484 23.0001 7.58064 27.1614C6.12903 27.5485 4.96774 28.9033 4.96774 30.4517C4.96774 32.2904 6.51613 33.8388 8.35484 33.8388C10.1935 33.8388 11.7419 32.2904 11.7419 30.4517C11.7419 29.0001 10.7742 27.742 9.41935 27.2581C10.3871 22.5162 13.9677 18.742 18.7097 17.4839C19.1935 18.8388 20.4516 19.7097 21.9032 19.7097C23.3548 19.7097 24.6129 18.742 25.0968 17.4839C29.8387 18.742 33.5161 22.5162 34.4839 27.2581C33.129 27.742 32.1613 29.0001 32.1613 30.4517C32.1613 32.2904 33.7097 33.8388 35.5484 33.8388C37.3871 33.8388 38.9355 32.2904 38.9355 30.4517C38.9355 28.9033 37.871 27.5485 36.3226 27.1614C35.5484 23.0001 33.0323 19.4194 29.5484 17.2904H33.2258C33.7097 18.742 35.0645 19.8065 36.6129 19.8065ZM8.35484 31.9033C7.58065 31.9033 6.90323 31.2259 6.90323 30.4517C6.90323 29.6775 7.58065 29.0001 8.35484 29.0001C9.12903 29.0001 9.80645 29.6775 9.80645 30.4517C9.80645 31.2259 9.12903 31.9033 8.35484 31.9033ZM37.0968 30.4517C37.0968 31.2259 36.4194 31.9033 35.6452 31.9033C34.871 31.9033 34.1935 31.2259 34.1935 30.4517C34.1935 29.6775 34.871 29.0001 35.6452 29.0001C36.4194 29.0001 37.0968 29.6775 37.0968 30.4517ZM36.6129 14.871C37.3871 14.871 38.0645 15.5485 38.0645 16.3226C38.0645 17.0968 37.3871 17.7743 36.6129 17.7743C35.8387 17.7743 35.1613 17.0968 35.1613 16.3226C35.1613 15.5485 35.7419 14.871 36.6129 14.871ZM7.3871 17.871C6.6129 17.871 5.93548 17.1936 5.93548 16.4194C5.93548 15.6452 6.51613 14.871 7.3871 14.871C8.25806 14.871 8.83871 15.5485 8.83871 16.3226C8.83871 17.0968 8.16129 17.871 7.3871 17.871ZM22 17.871C21.2258 17.871 20.5484 17.1936 20.5484 16.4194C20.5484 15.6452 21.129 14.871 22 14.871C22.871 14.871 23.4516 15.5485 23.4516 16.3226C23.4516 17.0968 22.7742 17.871 22 17.871Z" fill="#252C54"/>
</svg>
