<svg width="62" height="73" viewBox="0 0 62 73" fill="none" xmlns="http://www.w3.org/2000/svg">
<path fill-rule="evenodd" clip-rule="evenodd" d="M32.4043 1.76997C40.4304 -0.346906 51.0767 -1.71479 56.5166 4.61337C62.178 11.1992 55.7008 21.4893 56.7946 30.1427C57.5864 36.4065 62.3131 41.5577 61.9836 47.8636C61.5808 55.5703 60.7 64.3943 54.7516 69.2342C48.7616 74.1078 39.9654 73.3484 32.4043 71.9302C25.7715 70.6861 20.818 65.8651 15.3681 61.8471C9.93154 57.8389 2.83397 55.0111 0.705357 48.5596C-1.42714 42.0963 1.6917 35.1786 4.53008 28.9988C7.08203 23.4426 11.6207 19.5625 15.979 15.3051C21.1859 10.2188 25.3972 3.6181 32.4043 1.76997Z" fill="#CEE7F8"/>
<g clip-path="url(#clip0)">
<path d="M4.86667 19.4154C4.07506 19.4154 3.43333 20.0491 3.43333 20.8308V51.9692C3.43333 52.7509 4.07506 53.3846 4.86667 53.3846H42.1333C42.9249 53.3846 43.5667 52.7509 43.5667 51.9692V20.8308C43.5667 20.0491 42.9249 19.4154 42.1333 19.4154H4.86667ZM4.86667 18H42.1333C43.7165 18 45 19.2674 45 20.8308V51.9692C45 53.5326 43.7165 54.8 42.1333 54.8H4.86667C3.28345 54.8 2 53.5326 2 51.9692V20.8308C2 19.2674 3.28345 18 4.86667 18Z" fill="#252C54"/>
<path d="M43.5669 25.077H3.43359V26.4924H43.5669V25.077Z" fill="#252C54"/>
<path d="M40.699 23.6616C41.4906 23.6616 42.1323 23.0279 42.1323 22.2462C42.1323 21.4645 41.4906 20.8308 40.699 20.8308C39.9074 20.8308 39.2656 21.4645 39.2656 22.2462C39.2656 23.0279 39.9074 23.6616 40.699 23.6616Z" fill="#252C54"/>
<path d="M36.4001 23.6616C37.1917 23.6616 37.8335 23.0279 37.8335 22.2462C37.8335 21.4645 37.1917 20.8308 36.4001 20.8308C35.6085 20.8308 34.9668 21.4645 34.9668 22.2462C34.9668 23.0279 35.6085 23.6616 36.4001 23.6616Z" fill="#252C54"/>
<path d="M32.0994 23.6616C32.891 23.6616 33.5327 23.0279 33.5327 22.2462C33.5327 21.4645 32.891 20.8308 32.0994 20.8308C31.3077 20.8308 30.666 21.4645 30.666 22.2462C30.666 23.0279 31.3077 23.6616 32.0994 23.6616Z" fill="#252C54"/>
<path d="M17.0438 44.8995C17.4356 45.2864 17.4356 45.9137 17.0438 46.3006C16.652 46.6875 16.0167 46.6875 15.6249 46.3006L9.89153 40.6391C9.4997 40.2522 9.4997 39.6248 9.89153 39.2379L15.6249 33.5764C16.0167 33.1895 16.652 33.1895 17.0438 33.5764C17.4356 33.9633 17.4356 34.5906 17.0438 34.9775L12.0199 39.9385L17.0438 44.8995Z" fill="#252C54"/>
<path d="M29.9579 34.9775C29.5661 34.5906 29.5661 33.9633 29.9579 33.5764C30.3498 33.1895 30.985 33.1895 31.3769 33.5764L37.1102 39.2379C37.502 39.6248 37.502 40.2522 37.1102 40.6391L31.3769 46.3006C30.985 46.6875 30.3498 46.6875 29.9579 46.3006C29.5661 45.9137 29.5661 45.2864 29.9579 44.8995L34.9818 39.9385L29.9579 34.9775Z" fill="#252C54"/>
<path d="M21.5992 50.1183C21.447 50.6445 20.8916 50.9491 20.3588 50.7988C19.826 50.6485 19.5175 50.1001 19.6697 49.574L25.4031 29.7586C25.5553 29.2324 26.1106 28.9278 26.6434 29.0781C27.1762 29.2284 27.4847 29.7768 27.3325 30.3029L21.5992 50.1183Z" fill="#252C54"/>
</g>
<defs>
<clipPath id="clip0">
<rect x="2" y="18" width="43" height="46" fill="white"/>
</clipPath>
</defs>
</svg>
