<svg width="62" height="73" viewBox="0 0 62 73" fill="none" xmlns="http://www.w3.org/2000/svg">
<path fill-rule="evenodd" clip-rule="evenodd" d="M32.4043 1.76997C40.4304 -0.346906 51.0767 -1.71479 56.5166 4.61337C62.178 11.1992 55.7008 21.4893 56.7946 30.1427C57.5864 36.4065 62.3131 41.5577 61.9836 47.8636C61.5808 55.5703 60.7 64.3943 54.7516 69.2342C48.7616 74.1078 39.9654 73.3484 32.4043 71.9302C25.7715 70.6861 20.818 65.8651 15.3681 61.8471C9.93154 57.8389 2.83397 55.0111 0.705357 48.5596C-1.42714 42.0963 1.6917 35.1786 4.53008 28.9988C7.08203 23.4426 11.6207 19.5625 15.979 15.3051C21.1859 10.2188 25.3972 3.6181 32.4043 1.76997Z" fill="#FFEFC0"/>
<path d="M52.1673 19.3333H32.1673C31.7071 19.3333 31.334 19.7064 31.334 20.1666V27.6666C31.3343 28.1268 31.7077 28.4996 32.1679 28.4993C32.2572 28.4992 32.346 28.4848 32.4307 28.4566L33.4782 28.1074C34.6154 27.7351 35.8391 28.3553 36.2113 29.4926C36.5835 30.6299 35.9634 31.8536 34.8261 32.2258C34.3881 32.3691 33.916 32.3691 33.478 32.2258L32.4305 31.8766C31.9939 31.7312 31.522 31.9672 31.3766 32.4039C31.3484 32.4886 31.334 32.5773 31.3339 32.6666V39.3333H24.6672C24.207 39.3336 23.8342 39.707 23.8345 40.1672C23.8346 40.2565 23.849 40.3452 23.8772 40.4299L24.2264 41.4774C24.5987 42.6147 23.9785 43.8384 22.8412 44.2105C21.7039 44.5828 20.4802 43.9626 20.108 42.8253C19.9647 42.3874 19.9647 41.9152 20.108 41.4773L20.4572 40.4298C20.6026 39.9931 20.3666 39.5213 19.9299 39.3759C19.8452 39.3476 19.7565 39.3333 19.6672 39.3331H12.1673C11.7071 39.3331 11.334 39.7063 11.334 40.1665V60.1665C11.334 60.6267 11.7071 60.9998 12.1673 60.9998H52.1673C52.6275 60.9998 53.0006 60.6267 53.0006 60.1665V20.1666C53.0006 19.7064 52.6275 19.3333 52.1673 19.3333ZM31.3767 52.4039C31.3485 52.4886 31.3341 52.5773 31.334 52.6666V59.3333H13.0007V40.9999H18.5115C17.8747 43.019 18.9953 45.172 21.0144 45.8087C23.0335 46.4454 25.1865 45.3248 25.8231 43.3058C26.0598 42.5553 26.0598 41.7502 25.8231 40.9998H31.334V47.6665C31.3343 48.1267 31.7077 48.4995 32.1679 48.4992C32.2572 48.4991 32.346 48.4847 32.4307 48.4565L33.4782 48.1073C34.6154 47.7351 35.8391 48.3552 36.2113 49.4925C36.5835 50.6298 35.9634 51.8535 34.8261 52.2257C34.3881 52.369 33.916 52.369 33.478 52.2257L32.4305 51.8765C31.994 51.7312 31.5221 51.9672 31.3767 52.4039ZM51.334 59.3333H33.0006V53.8224C35.0197 54.4592 37.1727 53.3386 37.8094 51.3195C38.4462 49.3004 37.3255 47.1474 35.3065 46.5108C34.5561 46.2741 33.751 46.2741 33.0005 46.5108V40.9999H39.6672C40.1274 40.9996 40.5002 40.6262 40.4999 40.166C40.4998 40.0767 40.4854 39.9879 40.4572 39.9033L40.108 38.8558C39.7359 37.7185 40.356 36.4948 41.4933 36.1226C42.6305 35.7504 43.8542 36.3705 44.2264 37.5078C44.3697 37.9458 44.3697 38.4179 44.2264 38.8559L43.8772 39.9034C43.7318 40.34 43.9678 40.8119 44.4045 40.9573C44.4892 40.9855 44.5779 40.9999 44.6672 41H51.3339V59.3333H51.334ZM51.334 39.3333H45.8231C46.4599 37.3142 45.3393 35.1612 43.3202 34.5245C41.3012 33.8877 39.1481 35.0084 38.5115 37.0274C38.2748 37.7778 38.2748 38.5829 38.5115 39.3334H33.0006V33.8225C34.158 34.1976 35.4251 33.9952 36.4081 33.2784C38.1317 32.049 38.5323 29.6551 37.3029 27.9316C36.3321 26.5705 34.5912 25.9956 33.0006 26.5109V20.9999H51.334V39.3333Z" fill="#252C54"/>
<path d="M24.1667 18.1775L24.8171 18.6543C25.4696 18.4486 26.1697 18.4486 26.8222 18.6543C28.5779 19.2081 29.5523 21.0802 28.9986 22.8358L28.9986 22.8358C28.4449 24.5915 26.5728 25.5659 24.8171 25.0122L24.1667 25.4891V31.8332C24.1667 32.0173 24.0174 32.1666 23.8333 32.1666H17.4892L17.0123 32.817C17.2181 33.4695 17.2181 34.1696 17.0123 34.8221L17.0123 34.8221C16.4587 36.5778 14.5865 37.5522 12.8308 36.9986C11.0751 36.4449 10.1006 34.5728 10.6543 32.8171L10.1775 32.1667H3.83333C3.64927 32.1667 3.5 32.0174 3.5 31.8333V11.8333C3.5 11.6493 3.64927 11.5 3.83333 11.5H23.8333C24.0174 11.5 24.1667 11.6493 24.1667 11.8333V18.1775ZM24.9861 24.3668L24.9886 24.3677C25.5276 24.5441 26.1088 24.5441 26.6477 24.3677C28.0474 23.9096 28.8107 22.4035 28.3525 21.0038C27.8944 19.6041 26.3883 18.8409 24.9887 19.299L24.9861 19.2998L23.9386 19.649C23.9049 19.6602 23.8694 19.666 23.8334 19.666C23.6493 19.666 23.5001 19.5169 23.5 19.333V12.6667L23 12.1667H4.66667L4.16667 12.6667V30.9999L4.66667 31.4999H11.3327C11.3688 31.4999 11.4043 31.5057 11.4379 31.5169L11.4381 31.517C11.6127 31.5751 11.7071 31.7639 11.6489 31.9386L11.2998 32.9859L11.299 32.9885C11.1226 33.5275 11.1226 34.1087 11.299 34.6476C11.7571 36.0474 13.2631 36.8106 14.6628 36.3525C16.0625 35.8944 16.8259 34.3884 16.3677 32.9886L16.3668 32.9861L16.0177 31.9386C16.0065 31.9049 16.0007 31.8694 16.0006 31.8334C16.0006 31.6493 16.1498 31.5001 16.3337 31.5H23L23.5 31V24.3339C23.5 24.2979 23.5058 24.2623 23.5171 24.2287L23.5171 24.2286C23.5752 24.054 23.764 23.9595 23.9387 24.0177L24.9861 24.3668Z" stroke="#252C54" stroke-linejoin="bevel"/>
</svg>
