<svg width="870" height="878" viewBox="0 0 870 878" fill="none" xmlns="http://www.w3.org/2000/svg">
<mask id="mask0" mask-type="alpha" maskUnits="userSpaceOnUse" x="0" y="0" width="870" height="878">
<rect width="870" height="878" fill="#C4C4C4"/>
</mask>
<g mask="url(#mask0)">
<rect width="1" height="1440" transform="matrix(0.866025 -0.5 0.866025 0.5 -584.256 475.5)" fill="#DEDEDE"/>
<rect width="1" height="1440" transform="matrix(0.866025 -0.5 0.866025 0.5 -535.428 445)" fill="#DEDEDE"/>
<rect width="1" height="1440" transform="matrix(0.866025 -0.5 0.866025 0.5 -482.602 414.5)" fill="#DEDEDE"/>
<rect width="1" height="1440" transform="matrix(0.866025 -0.5 0.866025 0.5 -429.773 384)" fill="#DEDEDE"/>
<rect width="1" height="1440" transform="matrix(0.866025 -0.5 0.866025 0.5 -376.945 353.5)" fill="#DEDEDE"/>
<rect width="1" height="1440" transform="matrix(0.866025 -0.5 0.866025 0.5 -324.117 323)" fill="#DEDEDE"/>
<rect width="1" height="1440" transform="matrix(0.866025 -0.5 0.866025 0.5 -271.291 292.5)" fill="#DEDEDE"/>
<rect width="1" height="1440" transform="matrix(0.866025 -0.5 0.866025 0.5 -218.463 262)" fill="#DEDEDE"/>
<rect width="1" height="1440" transform="matrix(0.866025 -0.5 0.866025 0.5 -165.635 231.5)" fill="#DEDEDE"/>
<rect width="1" height="1440" transform="matrix(0.866025 -0.5 0.866025 0.5 -112.809 201)" fill="#DEDEDE"/>
<rect width="1" height="1440" transform="matrix(0.866025 -0.5 0.866025 0.5 -59.9805 170.5)" fill="#DEDEDE"/>
<rect width="1" height="1440" transform="matrix(0.866025 -0.5 0.866025 0.5 -7.15234 140)" fill="#DEDEDE"/>
<rect width="1" height="1440" transform="matrix(0.866025 -0.5 0.866025 0.5 45.6758 109.5)" fill="#DEDEDE"/>
<rect width="1" height="1440" transform="matrix(0.866025 -0.5 0.866025 0.5 98.502 78.9996)" fill="#DEDEDE"/>
<rect width="1" height="1440" transform="matrix(0.866025 -0.5 0.866025 0.5 151.33 48.4996)" fill="#DEDEDE"/>
<rect width="1" height="1440" transform="matrix(0.866025 -0.5 0.866025 0.5 204.158 17.9996)" fill="#DEDEDE"/>
<rect width="1" height="1440" transform="matrix(0.866025 -0.5 0.866025 0.5 256.984 -12.5004)" fill="#DEDEDE"/>
<rect width="1" height="1440" transform="matrix(0.866025 -0.5 0.866025 0.5 309.812 -43.0002)" fill="#DEDEDE"/>
<rect width="1" height="1440" transform="matrix(0.866025 -0.5 0.866025 0.5 362.641 -73.5002)" fill="#DEDEDE"/>
<rect width="1" height="1440" transform="matrix(0.866025 -0.5 0.866025 0.5 415.467 -104)" fill="#DEDEDE"/>
<rect width="1" height="1440" transform="matrix(0.866025 -0.5 0.866025 0.5 468.295 -134.5)" fill="#DEDEDE"/>
<rect width="1" height="1440" transform="matrix(0.866025 -0.5 0.866025 0.5 521.123 -165)" fill="#DEDEDE"/>
<rect width="1" height="1440" transform="matrix(0.866025 -0.5 0.866025 0.5 573.949 -195.5)" fill="#DEDEDE"/>
<rect width="1" height="1440" transform="matrix(0.866025 -0.5 0.866025 0.5 626.777 -226)" fill="#DEDEDE"/>
<rect width="1" height="1440" transform="matrix(0.866025 0.5 -0.866025 0.5 665.379 -249)" fill="#DEDEDE"/>
<rect width="1" height="1440" transform="matrix(0.866025 0.5 -0.866025 0.5 718.207 -214.5)" fill="#DEDEDE"/>
<rect width="1" height="1440" transform="matrix(0.866025 0.5 -0.866025 0.5 771.033 -184)" fill="#DEDEDE"/>
<rect width="1" height="1440" transform="matrix(0.866025 0.5 -0.866025 0.5 823.861 -153.5)" fill="#DEDEDE"/>
<rect width="1" height="1440" transform="matrix(0.866025 0.5 -0.866025 0.5 876.689 -123)" fill="#DEDEDE"/>
<rect width="1" height="1440" transform="matrix(0.866025 0.5 -0.866025 0.5 929.518 -92.5)" fill="#DEDEDE"/>
<rect width="1" height="1440" transform="matrix(0.866025 0.5 -0.866025 0.5 982.344 -62)" fill="#DEDEDE"/>
<rect width="1" height="1440" transform="matrix(0.866025 0.5 -0.866025 0.5 1035.17 -31.5)" fill="#DEDEDE"/>
<rect width="1" height="1440" transform="matrix(0.866025 0.5 -0.866025 0.5 1088 -1)" fill="#DEDEDE"/>
<rect width="1" height="1440" transform="matrix(0.866025 0.5 -0.866025 0.5 1140.83 29.5)" fill="#DEDEDE"/>
<rect width="1" height="1440" transform="matrix(0.866025 0.5 -0.866025 0.5 1193.65 60)" fill="#DEDEDE"/>
<rect width="1" height="1440" transform="matrix(0.866025 0.5 -0.866025 0.5 1246.48 90.5)" fill="#DEDEDE"/>
<rect width="1" height="1440" transform="matrix(0.866025 0.5 -0.866025 0.5 1299.31 121)" fill="#DEDEDE"/>
<rect width="1" height="1440" transform="matrix(0.866025 0.5 -0.866025 0.5 1352.14 151.5)" fill="#DEDEDE"/>
<rect width="1" height="1440" transform="matrix(0.866025 0.5 -0.866025 0.5 1404.96 182)" fill="#DEDEDE"/>
<rect width="1" height="1440" transform="matrix(0.866025 0.5 -0.866025 0.5 1457.79 212.5)" fill="#DEDEDE"/>
<rect width="1" height="1440" transform="matrix(0.866025 0.5 -0.866025 0.5 1510.62 243)" fill="#DEDEDE"/>
<rect width="1" height="1440" transform="matrix(0.866025 0.5 -0.866025 0.5 1563.45 273.5)" fill="#DEDEDE"/>
<rect width="1" height="1440" transform="matrix(0.866025 0.5 -0.866025 0.5 1616.28 304)" fill="#DEDEDE"/>
<rect width="1" height="1440" transform="matrix(0.866025 0.5 -0.866025 0.5 1669.1 334.5)" fill="#DEDEDE"/>
<rect width="1" height="1440" transform="matrix(0.866025 0.5 -0.866025 0.5 1721.93 365)" fill="#DEDEDE"/>
<rect width="1" height="1440" transform="matrix(0.866025 0.5 -0.866025 0.5 1774.76 395.5)" fill="#DEDEDE"/>
<rect width="1" height="1440" transform="matrix(0.866025 0.5 -0.866025 0.5 1827.59 426)" fill="#DEDEDE"/>
<rect width="1" height="1440" transform="matrix(0.866025 0.5 -0.866025 0.5 1880.41 456.5)" fill="#DEDEDE"/>
<path d="M524.985 142.483L473.283 172.273L524.985 201.956L576.255 172.273L524.985 142.483Z" fill="#F7F7F7"/>
<path d="M788.936 111.29L737.234 141.081L788.936 170.763L840.206 141.081L788.936 111.29Z" fill="#F7F7F7"/>
<path d="M102.53 142.027L50.8281 171.817L102.53 201.5L153.8 171.817L102.53 142.027Z" fill="#F7F7F7"/>
<path d="M524.604 752.527L472.902 782.318L524.604 812L575.874 782.318L524.604 752.527Z" fill="#F7F7F7"/>
<path d="M842.047 752.06L790.346 781.851L842.047 811.533L893.318 781.851L842.047 752.06Z" fill="#F7F7F7"/>
<path d="M102.108 752.048L50.4062 781.839L102.108 811.521L153.378 781.839L102.108 752.048Z" fill="#F7F7F7"/>
<path d="M102.53 447.597L50.8281 477.388L102.53 507.071L153.8 477.388L102.53 447.597Z" fill="#F7F7F7"/>
<path d="M366.833 -10.0486L315.131 19.7419L366.833 49.4245L418.103 19.7419L366.833 -10.0486Z" fill="#F7F7F7"/>
<line y1="-1.25" x2="300" y2="-1.25" transform="matrix(-0.866026 0.5 -0.866025 -0.5 556.076 429.472)" stroke="#737373" stroke-width="2.5" stroke-linejoin="round" stroke-dasharray="7 7"/>
<g filter="url(#filter0_d)">
<line y1="-1.25" x2="300" y2="-1.25" transform="matrix(-0.866026 0.5 -0.866025 -0.5 576.877 441.481)" stroke="#FFE087" stroke-width="2.5" stroke-linejoin="round" stroke-dasharray="7 7"/>
</g>
<line y1="-1.25" x2="300" y2="-1.25" transform="matrix(-0.866026 0.5 -0.866025 -0.5 598.361 453.886)" stroke="#737373" stroke-width="2.5" stroke-linejoin="round" stroke-dasharray="7 7"/>
<line y1="-1.25" x2="300" y2="-1.25" transform="matrix(-0.866026 0.5 -0.866025 -0.5 752.123 315.325)" stroke="#737373" stroke-width="2.5" stroke-linejoin="round" stroke-dasharray="7 7"/>
<g filter="url(#filter1_d)">
<line y1="-1.25" x2="300" y2="-1.25" transform="matrix(-0.866026 0.5 -0.866025 -0.5 772.924 327.334)" stroke="#73E190" stroke-width="2.5" stroke-linejoin="round" stroke-dasharray="7 7"/>
</g>
<line y1="-1.25" x2="300" y2="-1.25" transform="matrix(-0.866026 0.5 -0.866025 -0.5 794.408 339.739)" stroke="#737373" stroke-width="2.5" stroke-linejoin="round" stroke-dasharray="7 7"/>
<line y1="-1.25" x2="300" y2="-1.25" transform="matrix(0.866025 0.5 -0.866026 0.5 224.938 328.75)" stroke="#737373" stroke-width="2.5" stroke-linejoin="round" stroke-dasharray="7 7"/>
<g filter="url(#filter2_d)">
<line y1="-1.25" x2="300" y2="-1.25" transform="matrix(0.866025 0.5 -0.866026 0.5 245.738 316.741)" stroke="#9FD2F6" stroke-width="2.5" stroke-linejoin="round" stroke-dasharray="7 7"/>
</g>
<line y1="-1.25" x2="300" y2="-1.25" transform="matrix(0.866025 0.5 -0.866026 0.5 267.223 304.336)" stroke="#737373" stroke-width="2.5" stroke-linejoin="round" stroke-dasharray="7 7"/>
<g filter="url(#filter3_f)">
<rect width="180" height="180" transform="matrix(0.866025 0.5 -0.866025 0.5 260.604 232.407)" fill="#25A0F9"/>
</g>
<rect width="180" height="180" transform="matrix(0.866025 0.5 -0.866025 0.5 260.604 217.351)" fill="white"/>
<rect width="180" height="180" transform="matrix(0.866025 0.5 -0.866025 0.5 260.604 202.264)" fill="#9FD2F7"/>
<rect opacity="0.2" width="45.777" height="72.4105" rx="5" transform="matrix(0.866025 -0.5 0.866025 0.5 209.428 289.944)" fill="black"/>
<rect x="2.59808" width="42.777" height="69.4105" rx="3.5" transform="matrix(0.866025 -0.5 0.866025 0.5 209.776 286.567)" fill="#85C1EB" stroke="#2D5673" stroke-width="3"/>
<circle r="2.27498" transform="matrix(0.866025 -0.5 0.866025 0.5 284.343 305.209)" fill="#2D5673"/>
<path d="M104.725 292.271V307.356L260.615 397.355V382.274L104.725 292.271Z" fill="url(#paint0_linear)"/>
<path d="M104.725 309.179V324.265L260.615 414.263V399.182L104.725 309.179Z" fill="#EDEDED"/>
<path d="M260.615 382.263V397.353L416.49 307.353V292.267L260.615 382.263Z" fill="url(#paint1_linear)"/>
<path d="M260.615 399.171V414.261L416.49 324.261V309.175L260.615 399.171Z" fill="url(#paint2_linear)"/>
<line y1="-1.25" x2="300" y2="-1.25" transform="matrix(0.866025 0.5 -0.866026 0.5 464.895 466.741)" stroke="#737373" stroke-width="2.5" stroke-linejoin="round" stroke-dasharray="7 7"/>
<g filter="url(#filter4_d)">
<line y1="-1.25" x2="300" y2="-1.25" transform="matrix(0.866025 0.5 -0.866026 0.5 485.695 454.732)" stroke="#FF7F74" stroke-width="2.5" stroke-linejoin="round" stroke-dasharray="7 7"/>
</g>
<line y1="-1.25" x2="300" y2="-1.25" transform="matrix(0.866025 0.5 -0.866026 0.5 507.18 442.327)" stroke="#737373" stroke-width="2.5" stroke-linejoin="round" stroke-dasharray="7 7"/>
<path d="M633.956 442.838C638.079 459.33 633.774 475.994 631.106 482.264L606.797 476.944C614.132 458.703 629.833 426.345 633.956 442.838Z" fill="#EAEAEA"/>
<circle r="95.4246" transform="matrix(0.866025 0.5 -0.866025 0.5 517.963 465.325)" fill="#EAEAEA"/>
<circle r="95.4246" transform="matrix(0.866025 0.5 -0.866025 0.5 517.963 452.889)" fill="white"/>
<path d="M466.677 480.472L472.022 483.558L469.275 485.143L454.092 476.377L458.901 473.601C459.888 473.031 460.861 472.607 461.82 472.328C462.78 472.049 463.708 471.897 464.605 471.872C465.501 471.847 466.359 471.942 467.179 472.156C467.999 472.37 468.762 472.681 469.469 473.089C470.204 473.513 470.76 473.972 471.138 474.465C471.509 474.954 471.677 475.464 471.641 475.994C471.606 476.523 471.353 477.065 470.883 477.619C470.414 478.173 469.699 478.727 468.739 479.281L466.677 480.472ZM464.472 479.199L466.534 478.008C467.038 477.718 467.414 477.428 467.662 477.139C467.904 476.846 468.028 476.56 468.035 476.281C468.035 475.998 467.925 475.722 467.704 475.454C467.477 475.181 467.149 474.921 466.722 474.675C466.316 474.44 465.888 474.263 465.436 474.144C464.985 474.025 464.521 473.969 464.045 473.977C463.569 473.986 463.084 474.063 462.591 474.211C462.09 474.354 461.588 474.571 461.085 474.862L459.022 476.053L464.472 479.199Z" fill="#252C54"/>
<path d="M480.781 478.5L470.008 472.28L471.489 471.426C471.747 471.276 471.977 471.201 472.177 471.198C472.377 471.196 472.613 471.253 472.885 471.371L474.34 472.035C474.05 471.434 473.964 470.878 474.082 470.365C474.201 469.852 474.573 469.414 475.2 469.053C475.717 468.754 476.268 468.577 476.853 468.522L478.469 469.832C478.575 469.917 478.622 469.995 478.61 470.067C478.59 470.134 478.523 470.202 478.407 470.268C478.305 470.327 478.141 470.394 477.915 470.468C477.689 470.541 477.43 470.663 477.137 470.832C476.613 471.134 476.314 471.481 476.241 471.871C476.161 472.257 476.278 472.69 476.594 473.171L483.303 477.044L480.781 478.5Z" fill="#252C54"/>
<path d="M481.626 465.379C482.409 464.927 483.247 464.593 484.139 464.377C485.037 464.157 485.949 464.055 486.875 464.07C487.8 464.086 488.728 464.221 489.659 464.475C490.59 464.73 491.479 465.102 492.326 465.591C493.18 466.084 493.828 466.599 494.269 467.137C494.71 467.674 494.947 468.212 494.981 468.75C495.015 469.289 494.841 469.817 494.46 470.336C494.086 470.851 493.508 471.335 492.725 471.787C491.942 472.238 491.102 472.574 490.203 472.794C489.304 473.014 488.385 473.116 487.446 473.101C486.514 473.081 485.579 472.946 484.641 472.695C483.71 472.441 482.817 472.067 481.963 471.574C481.116 471.085 480.472 470.572 480.031 470.034C479.597 469.493 479.367 468.955 479.34 468.421C479.32 467.882 479.5 467.354 479.881 466.835C480.262 466.316 480.844 465.831 481.626 465.379ZM490.73 470.635C491.601 470.132 491.944 469.587 491.757 468.999C491.577 468.408 490.906 467.777 489.744 467.106C488.582 466.435 487.485 466.046 486.454 465.938C485.43 465.826 484.482 466.021 483.611 466.524C482.726 467.035 482.381 467.59 482.575 468.19C482.762 468.785 483.433 469.416 484.588 470.083C485.743 470.75 486.836 471.137 487.867 471.245C488.891 471.349 489.845 471.146 490.73 470.635Z" fill="#252C54"/>
<path d="M506.052 463.911C505.725 464.099 505.353 464.132 504.936 464.009L503.692 463.527C503.727 463.798 503.726 464.061 503.691 464.316C503.656 464.571 503.572 464.821 503.44 465.067C503.315 465.309 503.131 465.545 502.888 465.774C502.659 466.003 502.36 466.224 501.993 466.436C501.421 466.766 500.774 466.998 500.053 467.131C499.331 467.265 498.566 467.299 497.757 467.232C496.948 467.158 496.105 466.978 495.228 466.692C494.358 466.402 493.482 466.002 492.6 465.493C491.802 465.032 491.166 464.543 490.691 464.025C490.216 463.507 489.924 462.989 489.814 462.47C489.705 461.951 489.786 461.452 490.058 460.972C490.322 460.488 490.798 460.047 491.485 459.65C492.071 459.312 492.669 459.08 493.28 458.954C493.884 458.823 494.511 458.756 495.159 458.754L489.468 455.468L491.99 454.012L507.593 463.02L506.052 463.911ZM500.792 464.753C501.316 464.45 501.65 464.128 501.794 463.786C501.937 463.445 501.966 463.061 501.88 462.633L497.049 459.845C496.407 459.804 495.841 459.839 495.354 459.951C494.874 460.058 494.439 460.224 494.051 460.448C493.67 460.668 493.397 460.911 493.231 461.177C493.071 461.438 493.033 461.719 493.116 462.019C493.199 462.31 493.414 462.623 493.76 462.956C494.1 463.286 494.581 463.63 495.204 463.99C495.834 464.354 496.417 464.635 496.953 464.835C497.489 465.027 497.989 465.15 498.453 465.206C498.91 465.257 499.334 465.243 499.725 465.162C500.11 465.078 500.466 464.941 500.792 464.753Z" fill="#252C54"/>
<path d="M500.839 454.48L507.685 458.433C508.343 458.813 509 459.023 509.657 459.065C510.314 459.098 510.938 458.943 511.53 458.601C511.966 458.35 512.276 458.058 512.461 457.724C512.639 457.387 512.724 457.019 512.714 456.621L504.923 452.122L507.445 450.666L518.218 456.886L516.676 457.776C516.35 457.965 515.978 457.998 515.56 457.875L514.526 457.478C514.532 457.733 514.514 457.982 514.472 458.225C514.422 458.464 514.331 458.698 514.199 458.928C514.066 459.15 513.882 459.37 513.645 459.587C513.423 459.804 513.138 460.013 512.791 460.214C512.219 460.544 511.614 460.78 510.976 460.922C510.337 461.056 509.686 461.105 509.023 461.068C508.359 461.03 507.701 460.914 507.047 460.717C506.393 460.512 505.765 460.236 505.163 459.889L498.317 455.936L500.839 454.48Z" fill="#252C54"/>
<path d="M518.756 446.767C518.779 446.867 518.781 446.954 518.762 447.03C518.75 447.102 518.676 447.177 518.54 447.255C518.411 447.33 518.246 447.38 518.047 447.407C517.84 447.429 517.603 447.461 517.335 447.503C517.06 447.54 516.764 447.606 516.449 447.699C516.134 447.784 515.802 447.927 515.455 448.127C515.013 448.382 514.709 448.655 514.543 448.944C514.371 449.23 514.326 449.526 514.41 449.834C514.5 450.138 514.711 450.448 515.043 450.766C515.368 451.079 515.807 451.395 516.36 451.715C516.934 452.046 517.503 452.308 518.067 452.5C518.638 452.687 519.189 452.806 519.722 452.854C520.247 452.898 520.751 452.874 521.231 452.782C521.705 452.686 522.143 452.523 522.545 452.291C522.946 452.059 523.221 451.844 523.368 451.646C523.514 451.44 523.613 451.253 523.665 451.086C523.709 450.915 523.743 450.766 523.768 450.639C523.792 450.504 523.882 450.391 524.039 450.3C524.243 450.183 524.477 450.141 524.74 450.175L526.41 450.302C526.467 450.657 526.447 450.995 526.352 451.317C526.249 451.635 526.091 451.937 525.877 452.222C525.663 452.499 525.396 452.762 525.078 453.011C524.76 453.259 524.417 453.489 524.049 453.702C523.402 454.075 522.671 454.356 521.854 454.545C521.03 454.729 520.166 454.808 519.261 454.781C518.363 454.749 517.445 454.608 516.507 454.358C515.569 454.099 514.659 453.715 513.777 453.206C512.986 452.749 512.364 452.264 511.91 451.75C511.455 451.229 511.197 450.703 511.136 450.172C511.068 449.638 511.21 449.107 511.563 448.58C511.916 448.052 512.505 447.551 513.328 447.076C514.111 446.624 514.924 446.304 515.769 446.115C516.62 445.923 517.522 445.831 518.475 445.838L518.756 446.767Z" fill="#252C54"/>
<path d="M532.208 449.003C531.303 449.526 530.343 449.777 529.328 449.757C528.306 449.733 527.329 449.452 526.398 448.914L520.381 445.44L519.32 446.054C519.184 446.132 519.019 446.175 518.826 446.181C518.64 446.183 518.455 446.132 518.273 446.027L517.244 445.433L518.645 444.297L516.236 442.293C516.124 442.196 516.076 442.098 516.095 441.999C516.12 441.895 516.207 441.8 516.357 441.714L517.664 440.959L521.055 442.918L523.812 441.326L525.66 442.393L522.903 443.985L528.741 447.355C529.077 447.549 529.422 447.654 529.774 447.668C530.126 447.683 530.439 447.612 530.711 447.455C530.867 447.364 530.979 447.28 531.046 447.2C531.113 447.113 531.163 447.036 531.196 446.969C531.236 446.897 531.269 446.834 531.295 446.778C531.314 446.718 531.354 446.671 531.416 446.636C531.491 446.592 531.573 446.569 531.662 446.566C531.745 446.559 531.852 446.561 531.984 446.574L533.999 446.866C533.947 447.26 533.763 447.641 533.447 448.009C533.132 448.377 532.719 448.708 532.208 449.003Z" fill="#252C54"/>
<mask id="mask1" mask-type="alpha" maskUnits="userSpaceOnUse" x="521" y="411" width="60" height="35">
<path d="M524.846 437.841C521.406 436.965 520.307 434.456 522.612 432.742L549.775 412.534C551.908 410.947 555.968 410.8 558.428 412.22L578.933 424.059C581.343 425.45 581.156 427.736 578.531 428.99L544.973 445.017C541.903 446.483 537.245 445.758 535.866 443.6L534.461 441.401C533.919 440.552 532.804 439.867 531.371 439.502L524.846 437.841Z" fill="#EC4444"/>
</mask>
<g mask="url(#mask1)">
<path d="M568.61 413.969L529.782 444.645L515.476 436.386L568.61 413.969Z" fill="#EAB313"/>
<path d="M532.336 446.12L571.164 415.444L585.469 423.703L532.336 446.12Z" fill="#EA4335"/>
<path d="M566.567 412.789L527.739 443.465L513.434 435.206L566.567 412.789Z" fill="#FBBC05"/>
<path d="M515.476 436.386L554.304 405.71L568.609 413.969L515.476 436.386Z" fill="#34A853"/>
<path d="M512.922 434.911L551.75 404.235L566.055 412.494L512.922 434.911Z" fill="#2E9549"/>
<path d="M529.781 444.645L568.609 413.969L582.914 422.228L529.781 444.645Z" fill="#EA4335"/>
<path d="M532.336 446.12L571.164 415.444L585.469 423.703L532.336 446.12Z" fill="#FA4C3D"/>
<path d="M597.22 415.739L547.663 454.969L529.27 444.35L597.22 415.739Z" fill="#2596E9"/>
<path d="M599.263 416.919L549.706 456.149L531.313 445.53L599.263 416.919Z" fill="#25A0F9"/>
</g>
<path d="M539.767 436.285C538.742 435.24 538.17 434.369 538.05 433.67C537.93 432.959 538.105 432.468 538.573 432.198C539.053 431.921 539.592 431.817 540.192 431.886C540.78 431.949 541.358 432.144 541.925 432.472C542.481 432.793 542.824 433.186 542.955 433.651C543.097 434.111 542.879 434.507 542.301 434.841C542.148 434.929 541.925 435.007 541.631 435.077C541.543 434.636 541.2 434.243 540.601 433.897C540.252 433.695 539.936 433.677 539.652 433.84C539.445 433.96 539.369 434.174 539.424 434.482C539.467 434.784 539.636 435.146 539.93 435.568C540.214 435.983 540.677 436.464 541.32 437.012C541.963 437.547 542.731 438.072 543.625 438.588C543.734 438.651 544.225 438.903 545.097 439.343C544.77 439.557 544.557 439.692 544.459 439.749C543.838 440.108 543.282 440.303 542.791 440.334C542.301 440.366 541.805 440.237 541.304 439.947C541.086 439.821 540.361 439.271 539.129 438.295C537.898 437.32 536.851 436.584 535.99 436.087C535.118 435.583 534.225 435.174 533.309 434.86C534.355 434.545 535.271 434.432 536.056 434.52C536.83 434.602 537.527 434.822 538.148 435.181C538.759 435.533 539.298 435.901 539.767 436.285Z" fill="#F9F9FA"/>
<path d="M546.819 435.252C546.362 434.988 545.621 434.46 544.596 433.667C543.572 432.874 542.727 432.285 542.062 431.902C541.397 431.518 540.852 431.241 540.427 431.071C540.645 430.92 540.858 430.785 541.065 430.665C541.697 430.3 542.242 430.111 542.7 430.099C543.157 430.074 543.642 430.209 544.155 430.505C544.318 430.599 545.043 431.175 546.329 432.232C547.615 433.276 548.76 434.095 549.762 434.686C550.765 435.265 551.479 435.602 551.904 435.696C550.836 436.061 549.937 436.203 549.206 436.121C548.465 436.033 547.67 435.743 546.819 435.252ZM540.82 429.221C539.697 429.869 538.743 429.967 537.959 429.514C537.675 429.35 537.37 429.079 537.043 428.702C537.305 428.5 537.55 428.334 537.779 428.202C538.901 427.553 539.855 427.456 540.64 427.909C540.923 428.073 541.228 428.343 541.555 428.721C541.294 428.922 541.048 429.089 540.82 429.221Z" fill="#F9F9FA"/>
<path d="M552.015 431.535C553.312 432.284 554.353 432.432 555.138 431.979C555.552 431.74 555.732 431.378 555.677 430.894C555.623 430.409 555.339 429.88 554.827 429.308C554.326 428.729 553.737 428.144 553.061 427.552C552.385 426.948 551.612 426.344 550.74 425.74C549.039 424.582 547.672 423.704 546.636 423.107C545.59 422.502 544.762 422.075 544.151 421.823C545.11 421.47 546.031 421.367 546.914 421.511C547.797 421.656 548.669 421.977 549.53 422.474C550.391 422.971 551.808 424.003 553.781 425.57C555.764 427.131 557.296 428.222 558.375 428.845C559.454 429.468 560.418 429.969 561.268 430.346C560.287 430.673 559.383 430.768 558.554 430.629C557.726 430.478 556.903 430.167 556.086 429.695C556.685 430.431 556.92 431.152 556.789 431.856C556.658 432.561 556.233 433.121 555.514 433.536C554.794 433.952 553.933 434.134 552.93 434.084C551.928 434.021 550.892 433.681 549.824 433.065C548.135 432.089 547.148 430.985 546.865 429.751C546.571 428.512 547.056 427.527 548.32 426.797C548.68 426.589 549.334 426.313 550.282 425.966C549.781 426.457 549.481 426.983 549.383 427.543C549.285 428.09 549.366 428.609 549.628 429.1C550.118 430.088 550.914 430.9 552.015 431.535Z" fill="#F9F9FA"/>
<path d="M562.097 424.884C561.574 425.186 561.002 425.447 560.381 425.667C560.479 425.736 560.642 425.837 560.871 425.969C561.776 426.492 562.626 426.787 563.422 426.856C564.217 426.926 564.849 426.825 565.318 426.554C565.787 426.284 566.092 425.944 566.234 425.535C566.375 425.126 566.353 424.686 566.168 424.214C566.648 424.037 567.045 424.041 567.362 424.223C567.874 425.626 567.372 426.765 565.857 427.64C564.942 428.168 563.792 428.43 562.408 428.423C561.013 428.411 559.689 428.043 558.435 427.319C557.498 426.778 556.789 426.161 556.31 425.469C555.819 424.77 555.678 424.028 555.885 423.241C556.081 422.449 556.653 421.778 557.601 421.231C558.561 420.677 559.482 420.397 560.364 420.391C561.247 420.385 562.043 420.586 562.751 420.995C563.776 421.586 564.179 422.235 563.961 422.939C563.754 423.638 563.133 424.286 562.097 424.884ZM558.386 421.948C557.83 422.269 557.705 422.738 558.01 423.355C558.315 423.971 558.898 424.597 559.759 425.233L560.005 425.091C560.953 424.544 561.405 424 561.362 423.458C561.329 422.911 560.969 422.439 560.283 422.043C559.999 421.879 559.683 421.785 559.334 421.759C558.986 421.722 558.67 421.785 558.386 421.948Z" fill="#F9F9FA"/>
<g filter="url(#filter5_f)">
<rect width="180" height="180" transform="matrix(0.866025 0.5 -0.866025 0.5 789.166 538.014)" fill="#FA4C3D"/>
</g>
<rect width="180" height="180" transform="matrix(0.866025 0.5 -0.866025 0.5 789.166 522.958)" fill="white"/>
<rect width="180" height="180" transform="matrix(0.866025 0.5 -0.866025 0.5 789.166 507.871)" fill="#FF7F74"/>
<path d="M633.287 597.877V612.963L789.177 702.962V687.881L633.287 597.877Z" fill="url(#paint3_linear)"/>
<path d="M633.287 614.786V629.872L789.177 719.87V704.789L633.287 614.786Z" fill="url(#paint4_linear)"/>
<path d="M789.178 687.87V702.959L945.053 612.959V597.874L789.178 687.87Z" fill="url(#paint5_linear)"/>
<path d="M789.178 704.778V719.868L945.053 629.868V614.782L789.178 704.778Z" fill="url(#paint6_linear)"/>
<rect width="121.384" height="82.4287" rx="5" transform="matrix(0.866025 -0.5 0.866025 0.5 689.371 601.417)" fill="black" fill-opacity="0.2"/>
<rect width="121.384" height="82.4287" rx="5" transform="matrix(0.866025 -0.5 0.866025 0.5 689.371 596.417)" fill="#FF7F74"/>
<rect x="2.59808" width="106.769" height="61.1847" transform="matrix(0.866025 -0.5 0.866025 0.5 699.717 597.968)" fill="#EF6458" stroke="#8F322A" stroke-width="3"/>
<circle r="2.15154" transform="matrix(0.866025 -0.5 0.866025 0.5 807.793 604.095)" fill="black"/>
<rect width="9.57904" height="13.8072" transform="matrix(0.866025 -0.5 0.866025 0.5 807.842 608.913)" fill="#FF7F74"/>
<rect opacity="0.2" width="34.8103" height="8.98903" rx="4.49452" transform="matrix(0.866025 -0.5 0.866025 0.5 807.461 625.267)" fill="black"/>
<rect width="34.8103" height="8.98903" rx="4.49452" transform="matrix(0.866025 -0.5 0.866025 0.5 807.461 621.392)" fill="#FF7F74"/>
<g filter="url(#filter6_f)">
<rect width="180" height="180" transform="matrix(0.866025 0.5 -0.866025 0.5 788.721 232.614)" fill="#34A853"/>
</g>
<rect width="180" height="180" transform="matrix(0.866025 0.5 -0.866025 0.5 788.721 217.558)" fill="white"/>
<rect width="180" height="180" transform="matrix(0.866025 0.5 -0.866025 0.5 788.721 202.471)" fill="#8EE4A5"/>
<path d="M632.842 292.478V307.563L788.732 397.562V382.481L632.842 292.478Z" fill="url(#paint7_linear)"/>
<path d="M632.842 309.386V324.472L788.732 414.47V399.389L632.842 309.386Z" fill="url(#paint8_linear)"/>
<path d="M788.732 382.47V397.56L944.607 307.56V292.474L788.732 382.47Z" fill="url(#paint9_linear)"/>
<path d="M788.732 399.378V414.468L944.607 324.468V309.382L788.732 399.378Z" fill="url(#paint10_linear)"/>
<ellipse opacity="0.2" rx="38.0947" ry="42.8011" transform="matrix(0.866025 -0.5 0.866025 0.5 791.316 293.684)" fill="black"/>
<ellipse rx="37.2861" ry="41.0431" transform="matrix(0.866025 -0.5 0.866025 0.5 792.538 290.159)" fill="#73E190"/>
<rect x="2.59808" width="15.5266" height="17.2113" rx="1.5" transform="matrix(0.866025 -0.5 0.866025 0.5 808.516 267.763)" fill="#61C77C" stroke="#2F7541" stroke-width="3"/>
<rect x="2.59808" width="12.3246" height="17.2113" rx="1.5" transform="matrix(0.866025 -0.5 0.866025 0.5 734.399 310.554)" fill="#61C77C" stroke="#2F7541" stroke-width="3"/>
<rect x="2.59808" width="79.936" height="34.6193" rx="3.5" transform="matrix(0.866025 -0.5 0.866025 0.5 736.03 300.909)" fill="#61C77C" stroke="#2F7541" stroke-width="3"/>
<mask id="path-121-inside-1" fill="white">
<rect width="12.0158" height="27.8356" rx="2" transform="matrix(0.866025 -0.5 0.866025 0.5 744.857 269.448)"/>
</mask>
<rect width="12.0158" height="27.8356" rx="2" transform="matrix(0.866025 -0.5 0.866025 0.5 744.857 269.448)" fill="#61C77C" stroke="#2F7541" stroke-width="6" mask="url(#path-121-inside-1)"/>
<rect width="42.1788" height="4.28187" rx="2.14093" transform="matrix(0.866025 -0.5 0.866025 0.5 760.867 293.772)" fill="#337C46"/>
<g filter="url(#filter7_f)">
<rect width="180" height="180" transform="matrix(0.866025 0.5 -0.866025 0.5 260.604 538.014)" fill="#FBBC05"/>
</g>
<rect width="180" height="180" transform="matrix(0.866025 0.5 -0.866025 0.5 260.604 522.958)" fill="white"/>
<rect width="180" height="180" transform="matrix(0.866025 0.5 -0.866025 0.5 260.604 507.871)" fill="#FFE087"/>
<path d="M104.725 597.877V612.963L260.615 702.962V687.881L104.725 597.877Z" fill="url(#paint11_linear)"/>
<path d="M104.725 614.786V629.872L260.615 719.87V704.789L104.725 614.786Z" fill="url(#paint12_linear)"/>
<path d="M260.615 687.87V702.959L416.49 612.959V597.874L260.615 687.87Z" fill="url(#paint13_linear)"/>
<path d="M260.615 704.778V719.868L416.49 629.868V614.782L260.615 704.778Z" fill="url(#paint14_linear)"/>
<rect opacity="0.2" width="118.54" height="133.676" rx="5" transform="matrix(0.866025 -0.5 0.866025 0.5 150.266 597.25)" fill="black"/>
<rect x="1.73205" width="116.54" height="131.676" rx="4" transform="matrix(0.866025 -0.5 0.866025 0.5 150.498 592.116)" fill="#FFE087" stroke="#FFE087" stroke-width="2"/>
<rect width="103.695" height="109.206" transform="matrix(0.866025 -0.5 0.866025 0.5 164.078 591.801)" fill="#EEC651" stroke="#776227" stroke-width="3"/>
<circle r="2.8049" transform="matrix(0.866025 -0.5 0.866025 0.5 310.606 624.552)" fill="black"/>
</g>
<defs>
<filter id="filter0_d" x="307.068" y="435.481" width="281.973" height="171.25" filterUnits="userSpaceOnUse" color-interpolation-filters="sRGB">
<feFlood flood-opacity="0" result="BackgroundImageFix"/>
<feColorMatrix in="SourceAlpha" type="matrix" values="0 0 0 0 0 0 0 0 0 0 0 0 0 0 0 0 0 0 127 0"/>
<feOffset dy="4"/>
<feGaussianBlur stdDeviation="5"/>
<feColorMatrix type="matrix" values="0 0 0 0 1 0 0 0 0 0.878431 0 0 0 0 0.529412 0 0 0 1 0"/>
<feBlend mode="normal" in2="BackgroundImageFix" result="effect1_dropShadow"/>
<feBlend mode="normal" in="SourceGraphic" in2="effect1_dropShadow" result="shape"/>
</filter>
<filter id="filter1_d" x="503.115" y="321.334" width="281.973" height="171.25" filterUnits="userSpaceOnUse" color-interpolation-filters="sRGB">
<feFlood flood-opacity="0" result="BackgroundImageFix"/>
<feColorMatrix in="SourceAlpha" type="matrix" values="0 0 0 0 0 0 0 0 0 0 0 0 0 0 0 0 0 0 127 0"/>
<feOffset dy="4"/>
<feGaussianBlur stdDeviation="5"/>
<feColorMatrix type="matrix" values="0 0 0 0 0.45098 0 0 0 0 0.882353 0 0 0 0 0.564706 0 0 0 1 0"/>
<feBlend mode="normal" in2="BackgroundImageFix" result="effect1_dropShadow"/>
<feBlend mode="normal" in="SourceGraphic" in2="effect1_dropShadow" result="shape"/>
</filter>
<filter id="filter2_d" x="235.738" y="309.491" width="281.973" height="171.25" filterUnits="userSpaceOnUse" color-interpolation-filters="sRGB">
<feFlood flood-opacity="0" result="BackgroundImageFix"/>
<feColorMatrix in="SourceAlpha" type="matrix" values="0 0 0 0 0 0 0 0 0 0 0 0 0 0 0 0 0 0 127 0"/>
<feOffset dy="4"/>
<feGaussianBlur stdDeviation="5"/>
<feColorMatrix type="matrix" values="0 0 0 0 0.623529 0 0 0 0 0.823529 0 0 0 0 0.964706 0 0 0 1 0"/>
<feBlend mode="normal" in2="BackgroundImageFix" result="effect1_dropShadow"/>
<feBlend mode="normal" in="SourceGraphic" in2="effect1_dropShadow" result="shape"/>
</filter>
<filter id="filter3_f" x="84.7188" y="212.407" width="351.769" height="220" filterUnits="userSpaceOnUse" color-interpolation-filters="sRGB">
<feFlood flood-opacity="0" result="BackgroundImageFix"/>
<feBlend mode="normal" in="SourceGraphic" in2="BackgroundImageFix" result="shape"/>
<feGaussianBlur stdDeviation="10" result="effect1_foregroundBlur"/>
</filter>
<filter id="filter4_d" x="475.695" y="447.482" width="281.973" height="171.25" filterUnits="userSpaceOnUse" color-interpolation-filters="sRGB">
<feFlood flood-opacity="0" result="BackgroundImageFix"/>
<feColorMatrix in="SourceAlpha" type="matrix" values="0 0 0 0 0 0 0 0 0 0 0 0 0 0 0 0 0 0 127 0"/>
<feOffset dy="4"/>
<feGaussianBlur stdDeviation="5"/>
<feColorMatrix type="matrix" values="0 0 0 0 1 0 0 0 0 0.498039 0 0 0 0 0.454902 0 0 0 1 0"/>
<feBlend mode="normal" in2="BackgroundImageFix" result="effect1_dropShadow"/>
<feBlend mode="normal" in="SourceGraphic" in2="effect1_dropShadow" result="shape"/>
</filter>
<filter id="filter5_f" x="613.281" y="518.014" width="351.769" height="220" filterUnits="userSpaceOnUse" color-interpolation-filters="sRGB">
<feFlood flood-opacity="0" result="BackgroundImageFix"/>
<feBlend mode="normal" in="SourceGraphic" in2="BackgroundImageFix" result="shape"/>
<feGaussianBlur stdDeviation="10" result="effect1_foregroundBlur"/>
</filter>
<filter id="filter6_f" x="612.836" y="212.614" width="351.769" height="220" filterUnits="userSpaceOnUse" color-interpolation-filters="sRGB">
<feFlood flood-opacity="0" result="BackgroundImageFix"/>
<feBlend mode="normal" in="SourceGraphic" in2="BackgroundImageFix" result="shape"/>
<feGaussianBlur stdDeviation="10" result="effect1_foregroundBlur"/>
</filter>
<filter id="filter7_f" x="84.7188" y="518.014" width="351.769" height="220" filterUnits="userSpaceOnUse" color-interpolation-filters="sRGB">
<feFlood flood-opacity="0" result="BackgroundImageFix"/>
<feBlend mode="normal" in="SourceGraphic" in2="BackgroundImageFix" result="shape"/>
<feGaussianBlur stdDeviation="10" result="effect1_foregroundBlur"/>
</filter>
<linearGradient id="paint0_linear" x1="182.67" y1="292.271" x2="182.67" y2="397.355" gradientUnits="userSpaceOnUse">
<stop stop-color="#25A0F9"/>
<stop offset="1" stop-color="white" stop-opacity="0"/>
</linearGradient>
<linearGradient id="paint1_linear" x1="338.553" y1="282.341" x2="338.553" y2="397.353" gradientUnits="userSpaceOnUse">
<stop stop-color="white"/>
<stop offset="1" stop-color="#25A0F9" stop-opacity="0.28"/>
</linearGradient>
<linearGradient id="paint2_linear" x1="416.49" y1="316.605" x2="260.615" y2="404.861" gradientUnits="userSpaceOnUse">
<stop stop-color="#FCFCFC"/>
<stop offset="1" stop-color="#DFDFDF"/>
</linearGradient>
<linearGradient id="paint3_linear" x1="711.232" y1="597.877" x2="711.232" y2="702.962" gradientUnits="userSpaceOnUse">
<stop stop-color="#FA4C3D"/>
<stop offset="1" stop-color="white" stop-opacity="0"/>
</linearGradient>
<linearGradient id="paint4_linear" x1="789.177" y1="710.425" x2="635.709" y2="623.658" gradientUnits="userSpaceOnUse">
<stop stop-color="white"/>
<stop offset="1" stop-color="#DFDFDF"/>
</linearGradient>
<linearGradient id="paint5_linear" x1="867.115" y1="587.948" x2="867.115" y2="702.959" gradientUnits="userSpaceOnUse">
<stop stop-color="white"/>
<stop offset="1" stop-color="#FA4C3D" stop-opacity="0.28"/>
</linearGradient>
<linearGradient id="paint6_linear" x1="945.053" y1="622.212" x2="789.178" y2="710.468" gradientUnits="userSpaceOnUse">
<stop stop-color="white"/>
<stop offset="1" stop-color="#DFDFDF"/>
</linearGradient>
<linearGradient id="paint7_linear" x1="710.787" y1="292.478" x2="710.787" y2="397.562" gradientUnits="userSpaceOnUse">
<stop stop-color="#34A853"/>
<stop offset="1" stop-color="white" stop-opacity="0"/>
</linearGradient>
<linearGradient id="paint8_linear" x1="788.732" y1="405.025" x2="635.264" y2="318.258" gradientUnits="userSpaceOnUse">
<stop stop-color="white"/>
<stop offset="1" stop-color="#DFDFDF"/>
</linearGradient>
<linearGradient id="paint9_linear" x1="866.67" y1="282.548" x2="866.67" y2="397.56" gradientUnits="userSpaceOnUse">
<stop stop-color="white"/>
<stop offset="1" stop-color="#34A853" stop-opacity="0.28"/>
</linearGradient>
<linearGradient id="paint10_linear" x1="944.607" y1="316.813" x2="788.732" y2="405.068" gradientUnits="userSpaceOnUse">
<stop stop-color="white"/>
<stop offset="1" stop-color="#DFDFDF"/>
</linearGradient>
<linearGradient id="paint11_linear" x1="182.67" y1="597.877" x2="182.67" y2="702.962" gradientUnits="userSpaceOnUse">
<stop stop-color="#FBBC05"/>
<stop offset="1" stop-color="white" stop-opacity="0"/>
</linearGradient>
<linearGradient id="paint12_linear" x1="260.615" y1="710.425" x2="107.146" y2="623.658" gradientUnits="userSpaceOnUse">
<stop stop-color="white"/>
<stop offset="1" stop-color="#DFDFDF"/>
</linearGradient>
<linearGradient id="paint13_linear" x1="338.553" y1="587.948" x2="338.553" y2="702.959" gradientUnits="userSpaceOnUse">
<stop stop-color="white"/>
<stop offset="1" stop-color="#FBBC05" stop-opacity="0.28"/>
</linearGradient>
<linearGradient id="paint14_linear" x1="416.49" y1="622.212" x2="260.615" y2="710.468" gradientUnits="userSpaceOnUse">
<stop stop-color="white"/>
<stop offset="1" stop-color="#DFDFDF"/>
</linearGradient>
</defs>
</svg>
