<svg width="160" height="43" viewBox="0 0 160 43" fill="none" xmlns="http://www.w3.org/2000/svg">
<path d="M4.07895 25.7234V33.6611H0V11.111H7.14196C8.60775 11.111 9.87642 11.2878 10.948 11.6413C12.0195 11.9947 12.904 12.4886 13.6016 13.1228C14.2991 13.757 14.8146 14.5159 15.1482 15.3996C15.4818 16.2833 15.6486 17.2502 15.6486 18.3002C15.6486 19.3919 15.4717 20.3952 15.1179 21.31C14.7641 22.2145 14.2334 22.9943 13.5257 23.6493C12.8181 24.3043 11.9336 24.8137 10.8721 25.1776C9.81071 25.5414 8.56731 25.7234 7.14196 25.7234H4.07895ZM4.07895 22.4485H7.14196C7.89002 22.4485 8.54204 22.3549 9.09803 22.1678C9.65402 21.9702 10.114 21.6947 10.4779 21.3412C10.8418 20.9774 11.1148 20.5407 11.2967 20.0313C11.4787 19.5114 11.5697 18.9344 11.5697 18.3002C11.5697 17.6972 11.4787 17.1514 11.2967 16.6628C11.1148 16.1742 10.8418 15.7583 10.4779 15.4152C10.114 15.0721 9.65402 14.8122 9.09803 14.6355C8.54204 14.4483 7.89002 14.3548 7.14196 14.3548H4.07895V22.4485Z" fill="#252C54"/>
<path d="M17.0891 33.6611V17.6609H19.2878C19.672 17.6609 19.9399 17.7336 20.0915 17.8792C20.2431 18.0247 20.3442 18.2743 20.3948 18.6277L20.6222 20.5615C21.1782 19.5738 21.8302 18.7941 22.5783 18.2223C23.3263 17.6505 24.1654 17.3646 25.0954 17.3646C25.8637 17.3646 26.5005 17.5465 27.006 17.9104L26.5208 20.7954C26.4904 20.9826 26.4247 21.1177 26.3236 21.2009C26.2226 21.2737 26.0861 21.31 25.9142 21.31C25.7626 21.31 25.5554 21.2737 25.2925 21.2009C25.0297 21.1281 24.6809 21.0917 24.2463 21.0917C23.4679 21.0917 22.8007 21.3152 22.2447 21.7623C21.6887 22.199 21.2186 22.8435 20.8345 23.6961V33.6611H17.0891Z" fill="#252C54"/>
<path d="M34.5938 17.4113C35.7564 17.4113 36.8077 17.6037 37.7478 17.9884C38.6981 18.373 39.5068 18.9188 40.174 19.6258C40.8412 20.3328 41.3567 21.1957 41.7206 22.2145C42.0846 23.2334 42.2665 24.3718 42.2665 25.6298C42.2665 26.8982 42.0846 28.0418 41.7206 29.0607C41.3567 30.0795 40.8412 30.9476 40.174 31.665C39.5068 32.3824 38.6981 32.9334 37.7478 33.3181C36.8077 33.7027 35.7564 33.8951 34.5938 33.8951C33.4313 33.8951 32.3749 33.7027 31.4247 33.3181C30.4745 32.9334 29.6607 32.3824 28.9834 31.665C28.3162 30.9476 27.7956 30.0795 27.4216 29.0607C27.0576 28.0418 26.8757 26.8982 26.8757 25.6298C26.8757 24.3718 27.0576 23.2334 27.4216 22.2145C27.7956 21.1957 28.3162 20.3328 28.9834 19.6258C29.6607 18.9188 30.4745 18.373 31.4247 17.9884C32.3749 17.6037 33.4313 17.4113 34.5938 17.4113ZM34.5938 30.9321C35.8878 30.9321 36.8431 30.485 37.4597 29.5909C38.0865 28.6968 38.3999 27.3868 38.3999 25.661C38.3999 23.9352 38.0865 22.62 37.4597 21.7155C36.8431 20.811 35.8878 20.3588 34.5938 20.3588C33.2797 20.3588 32.3092 20.8162 31.6825 21.7311C31.0557 22.6356 30.7423 23.9456 30.7423 25.661C30.7423 27.3764 31.0557 28.6864 31.6825 29.5909C32.3092 30.485 33.2797 30.9321 34.5938 30.9321Z" fill="#252C54"/>
<path d="M54.6204 33.6611C54.1352 33.6611 53.8168 33.4272 53.6651 32.9594L53.3619 31.4155C53.0384 31.7898 52.6997 32.1277 52.3459 32.4292C51.9921 32.7307 51.608 32.9906 51.1935 33.2089C50.7891 33.4272 50.3494 33.5936 49.8743 33.7079C49.4093 33.8327 48.9038 33.8951 48.3579 33.8951C47.5088 33.8951 46.7304 33.7131 46.0228 33.3492C45.3152 32.9854 44.7036 32.4603 44.188 31.7742C43.6826 31.0776 43.2883 30.2199 43.0053 29.201C42.7323 28.1822 42.5959 27.0178 42.5959 25.7078C42.5959 24.5226 42.7525 23.4205 43.0659 22.4017C43.3793 21.3828 43.8291 20.4991 44.4155 19.7506C45.0018 19.002 45.7043 18.4198 46.5232 18.0039C47.342 17.5777 48.2619 17.3646 49.2829 17.3646C50.1523 17.3646 50.8953 17.5101 51.5119 17.8012C52.1286 18.0819 52.6795 18.4614 53.1647 18.9396V10.4872H56.9101V33.6611H54.6204ZM49.6317 30.8385C50.41 30.8385 51.0722 30.6721 51.6181 30.3394C52.164 30.0068 52.6795 29.5337 53.1647 28.9203V21.7467C52.7402 21.2165 52.2751 20.8422 51.7697 20.6239C51.2744 20.4055 50.7386 20.2964 50.1624 20.2964C49.5963 20.2964 49.0807 20.4055 48.6157 20.6239C48.1608 20.8422 47.7716 21.1749 47.4481 21.6219C47.1348 22.0586 46.8921 22.62 46.7203 23.3062C46.5484 23.982 46.4625 24.7825 46.4625 25.7078C46.4625 26.6435 46.5333 27.4388 46.6748 28.0938C46.8264 28.7384 47.0387 29.2686 47.3117 29.6845C47.5846 30.0899 47.9182 30.3862 48.3125 30.5734C48.7067 30.7501 49.1464 30.8385 49.6317 30.8385Z" fill="#252C54"/>
<path d="M62.8788 17.6609V27.8287C62.8788 28.806 63.0961 29.5649 63.5308 30.1055C63.9756 30.6358 64.6377 30.9009 65.5172 30.9009C66.1642 30.9009 66.7707 30.7553 67.3368 30.4642C67.9029 30.1627 68.4387 29.752 68.9441 29.2322V17.6609H72.6895V33.6611H70.3998C69.9146 33.6611 69.5962 33.4272 69.4445 32.9594L69.1867 31.6806C68.8633 32.0133 68.5297 32.32 68.186 32.6007C67.8423 32.871 67.4733 33.1049 67.079 33.3025C66.6949 33.4896 66.2754 33.6352 65.8205 33.7391C65.3757 33.8535 64.8955 33.9107 64.38 33.9107C63.5308 33.9107 62.7777 33.7651 62.1206 33.474C61.4736 33.1725 60.9278 32.7514 60.483 32.2108C60.0382 31.6702 59.6995 31.0308 59.467 30.2927C59.2446 29.5441 59.1334 28.7228 59.1334 27.8287V17.6609H62.8788Z" fill="#252C54"/>
<path d="M86.1048 21.0449C85.9936 21.1905 85.8824 21.3049 85.7712 21.388C85.6701 21.4712 85.5185 21.5128 85.3163 21.5128C85.1243 21.5128 84.9372 21.4556 84.7553 21.3412C84.5733 21.2165 84.356 21.0813 84.1032 20.9358C83.8505 20.7798 83.5473 20.6447 83.1935 20.5303C82.8497 20.4055 82.4201 20.3432 81.9046 20.3432C81.2475 20.3432 80.6713 20.4679 80.1759 20.7174C79.6806 20.9566 79.2661 21.3049 78.9325 21.7623C78.6091 22.2197 78.3664 22.776 78.2047 23.4309C78.043 24.0755 77.9621 24.8085 77.9621 25.6298C77.9621 26.4823 78.048 27.2413 78.2199 27.9067C78.4018 28.572 78.6596 29.1334 78.9932 29.5909C79.3268 30.0379 79.7311 30.381 80.2063 30.6202C80.6814 30.8489 81.2172 30.9632 81.8136 30.9632C82.41 30.9632 82.8902 30.8905 83.2541 30.7449C83.6281 30.589 83.9415 30.4226 84.1942 30.2459C84.447 30.0587 84.6643 29.8924 84.8463 29.7468C85.0383 29.5909 85.2506 29.5129 85.4831 29.5129C85.7864 29.5129 86.0138 29.6325 86.1655 29.8716L87.2421 31.2751C86.8276 31.7742 86.3778 32.1952 85.8925 32.5383C85.4073 32.871 84.9019 33.1413 84.3762 33.3492C83.8606 33.5468 83.3249 33.6871 82.7689 33.7703C82.2129 33.8535 81.6619 33.8951 81.1161 33.8951C80.1557 33.8951 79.251 33.7131 78.4018 33.3492C77.5527 32.975 76.8097 32.4344 76.1728 31.7274C75.5461 31.0204 75.0457 30.1575 74.6716 29.1386C74.3077 28.1094 74.1257 26.9398 74.1257 25.6298C74.1257 24.455 74.2875 23.3686 74.611 22.3705C74.9446 21.362 75.4298 20.4939 76.0667 19.7662C76.7035 19.028 77.492 18.451 78.4322 18.0351C79.3723 17.6193 80.4539 17.4113 81.6771 17.4113C82.8396 17.4113 83.8556 17.6037 84.725 17.9884C85.6044 18.373 86.3929 18.924 87.0904 19.6414L86.1048 21.0449Z" fill="#252C54"/>
<path d="M93.2183 33.9107C91.8739 33.9107 90.8377 33.5208 90.1098 32.7411C89.382 31.9509 89.0181 30.8645 89.0181 29.4817V20.5459H87.4411C87.2389 20.5459 87.062 20.4783 86.9104 20.3432C86.7689 20.208 86.6981 20.0053 86.6981 19.735V18.2067L89.2001 17.7856L89.9885 13.4191C90.029 13.2111 90.12 13.05 90.2615 12.9356C90.4131 12.8213 90.6001 12.7641 90.8225 12.7641H92.7634V17.8012H96.8576V20.5459H92.7634V29.2166C92.7634 29.7157 92.8848 30.1055 93.1274 30.3862C93.37 30.6669 93.6935 30.8073 94.0978 30.8073C94.3303 30.8073 94.5224 30.7813 94.674 30.7293C94.8358 30.6669 94.9722 30.6046 95.0834 30.5422C95.2047 30.4798 95.3109 30.4226 95.4019 30.3706C95.4929 30.3083 95.5838 30.2771 95.6748 30.2771C95.786 30.2771 95.877 30.3083 95.9478 30.3706C96.0185 30.4226 96.0943 30.5058 96.1752 30.6202L97.2973 32.4915C96.7514 32.9594 96.1247 33.3129 95.417 33.552C94.7094 33.7911 93.9765 33.9107 93.2183 33.9107Z" fill="#252C54"/>
<mask id="mask0" mask-type="alpha" maskUnits="userSpaceOnUse" x="101" y="0" width="59" height="43">
<path d="M102.108 14.0868C100.68 10.4059 103.091 6.36294 107.008 5.86904L153.17 0.0485928C156.795 -0.408489 160 2.4173 160 6.07114V36.5253C160 40.1035 156.921 42.9054 153.358 42.5686L107.825 38.2627C103.66 37.8688 101.132 33.4775 102.884 29.6777L104.669 25.8057C105.358 24.3119 105.411 22.6024 104.816 21.0688L102.108 14.0868Z" fill="#EC4444"/>
</mask>
<g mask="url(#mask0)">
<path d="M165.311 15.8806L97.0205 26.5035L97.0205 5.25769L165.311 15.8806Z" fill="#EAB313"/>
<path d="M97.0215 30.2974L165.312 19.6745L165.312 40.9203L97.0215 30.2974Z" fill="#EA4335"/>
<path d="M165.311 12.8455L97.0205 23.4684L97.0205 2.22259L165.311 12.8455Z" fill="#FBBC05"/>
<path d="M97.0215 5.25765L165.312 -5.36525L165.312 15.8806L97.0215 5.25765Z" fill="#34A853"/>
<path d="M97.0215 1.46376L165.312 -9.15914L165.312 12.0867L97.0215 1.46376Z" fill="#2E9549"/>
<path d="M97.0215 26.5035L165.312 15.8806L165.312 37.1264L97.0215 26.5035Z" fill="#EA4335"/>
<path d="M97.0215 30.2974L165.312 19.6745L165.312 40.9203L97.0215 30.2974Z" fill="#FA4C3D"/>
<path d="M184.281 39.4027L97.0217 53.0607L97.0217 25.7447L184.281 39.4027Z" fill="#2596E9"/>
<path d="M184.281 42.4379L97.0217 56.0959L97.0217 28.7798L184.281 42.4379Z" fill="#25A0F9"/>
</g>
<path d="M115.188 23.1649C115.771 21.0605 116.467 19.5146 117.277 18.5272C118.102 17.5236 118.863 17.0218 119.559 17.0218C120.271 17.0218 120.805 17.2889 121.162 17.8231C121.518 18.3411 121.696 19.0209 121.696 19.8627C121.696 20.6882 121.445 21.449 120.943 22.1451C120.457 22.8411 119.786 23.1892 118.928 23.1892C118.701 23.1892 118.434 23.1244 118.126 22.9949C118.628 22.3636 118.879 21.6028 118.879 20.7125C118.879 20.1945 118.669 19.9355 118.248 19.9355C117.94 19.9355 117.608 20.154 117.252 20.5911C116.896 21.012 116.556 21.6028 116.233 22.3636C115.909 23.1082 115.634 24.0714 115.407 25.253C115.197 26.4185 115.091 27.6649 115.091 28.9923C115.091 29.1542 115.132 29.8421 115.213 31.0562C114.695 31.0886 114.363 31.1047 114.217 31.1047C113.295 31.1047 112.631 30.9429 112.226 30.6191C111.821 30.2954 111.619 29.7612 111.619 29.0166C111.619 28.6928 111.789 27.4464 112.129 25.2773C112.469 23.1082 112.639 21.3843 112.639 20.1055C112.639 18.8105 112.501 17.6207 112.226 16.5362C113.408 16.9085 114.233 17.4427 114.703 18.1387C115.172 18.8186 115.407 19.6199 115.407 20.5425C115.407 21.449 115.334 22.3231 115.188 23.1649Z" fill="#F9F9FA"/>
<path d="M121.754 27.0741C121.754 26.3942 121.883 25.164 122.142 23.3834C122.401 21.6028 122.531 20.2188 122.531 19.2314C122.531 18.2439 122.482 17.4831 122.385 16.949C122.741 16.9166 123.073 16.9004 123.381 16.9004C124.319 16.9004 124.967 17.0623 125.323 17.386C125.695 17.6936 125.882 18.2278 125.882 18.9886C125.882 19.2314 125.679 20.5102 125.275 22.8249C124.886 25.1235 124.684 27.0255 124.667 28.531C124.667 30.0202 124.765 30.9833 124.959 31.4204C123.696 31.0966 122.846 30.611 122.409 29.9635C121.972 29.2999 121.754 28.3367 121.754 27.0741ZM125.056 14.8608C123.389 14.8608 122.555 14.2781 122.555 13.1126C122.555 12.6917 122.676 12.1171 122.919 11.3886C123.372 11.3239 123.769 11.2915 124.109 11.2915C125.776 11.2915 126.61 11.8742 126.61 13.0397C126.61 13.4606 126.489 14.0353 126.246 14.7637C125.792 14.8284 125.396 14.8608 125.056 14.8608Z" fill="#F9F9FA"/>
<path d="M130.393 26.1514C130.393 28.0777 130.975 29.0409 132.141 29.0409C132.756 29.0409 133.355 28.709 133.938 28.0453C134.52 27.3817 134.99 26.4914 135.346 25.3744C135.718 24.2575 136.034 23.0678 136.293 21.8051C136.568 20.5264 136.77 19.1747 136.9 17.7502C137.127 14.9984 137.24 12.8536 137.24 11.3158C137.24 9.76181 137.175 8.59633 137.046 7.81934C138.211 8.07833 139.029 8.6287 139.498 9.47044C139.967 10.3122 140.202 11.3724 140.202 12.6512C140.202 13.93 139.927 16.3096 139.377 19.7898C138.842 23.2701 138.575 25.8115 138.575 27.414C138.575 29.0166 138.648 30.3763 138.794 31.4932C137.645 31.1857 136.851 30.6353 136.414 29.8421C135.993 29.0328 135.783 28.0211 135.783 26.807C135.281 28.1991 134.529 29.2999 133.525 30.1092C132.521 30.9186 131.485 31.3233 130.417 31.3233C129.349 31.3233 128.474 30.9186 127.795 30.1092C127.131 29.2837 126.799 28.0777 126.799 26.4914C126.799 23.9823 127.487 21.8294 128.863 20.0326C130.239 18.2197 131.866 17.3132 133.743 17.3132C134.278 17.3132 135.119 17.4427 136.269 17.7017C135.265 17.9607 134.367 18.4139 133.573 19.0614C132.796 19.6927 132.189 20.4211 131.752 21.2467C130.846 22.8816 130.393 24.5165 130.393 26.1514Z" fill="#F9F9FA"/>
<path d="M146.435 25.0831C145.658 25.0831 144.898 24.994 144.153 24.816C144.137 24.9779 144.129 25.2288 144.129 25.5687C144.129 26.9122 144.38 27.9239 144.881 28.6038C145.383 29.2837 145.982 29.6236 146.678 29.6236C147.374 29.6236 148.038 29.4132 148.669 28.9923C149.3 28.5714 149.851 27.9887 150.32 27.2441C150.903 27.3736 151.194 27.673 151.194 28.1425C149.77 30.3278 147.933 31.4204 145.683 31.4204C144.323 31.4204 143.133 30.9024 142.113 29.8664C141.094 28.8142 140.584 27.3574 140.584 25.4958C140.584 24.1037 140.851 22.7845 141.385 21.5381C141.919 20.2754 142.769 19.2152 143.934 18.3573C145.1 17.4831 146.387 17.0461 147.795 17.0461C149.22 17.0461 150.264 17.3698 150.927 18.0173C151.591 18.6648 151.923 19.5146 151.923 20.5668C151.923 22.0884 151.389 23.2215 150.32 23.9661C149.268 24.7108 147.973 25.0831 146.435 25.0831ZM147.455 18.5515C146.63 18.5515 145.934 19.0614 145.367 20.0812C144.8 21.101 144.428 22.3393 144.25 23.7962H144.614C146.023 23.7962 147.059 23.432 147.722 22.7035C148.402 21.9751 148.742 21.101 148.742 20.0812C148.742 19.6603 148.629 19.3042 148.402 19.0128C148.192 18.7053 147.876 18.5515 147.455 18.5515Z" fill="#F9F9FA"/>
</svg>
