<svg width="62" height="73" viewBox="0 0 62 73" fill="none" xmlns="http://www.w3.org/2000/svg">
<path fill-rule="evenodd" clip-rule="evenodd" d="M32.4043 1.76997C40.4304 -0.346906 51.0767 -1.71479 56.5166 4.61337C62.178 11.1992 55.7008 21.4893 56.7946 30.1427C57.5864 36.4065 62.3131 41.5577 61.9836 47.8636C61.5808 55.5703 60.7 64.3943 54.7516 69.2342C48.7616 74.1078 39.9654 73.3484 32.4043 71.9302C25.7715 70.6861 20.818 65.8651 15.3681 61.8471C9.93154 57.8389 2.83397 55.0111 0.705357 48.5596C-1.42714 42.0963 1.6917 35.1786 4.53008 28.9988C7.08203 23.4426 11.6207 19.5625 15.979 15.3051C21.1859 10.2188 25.3972 3.6181 32.4043 1.76997Z" fill="#FFEFC0"/>
<path d="M32.6211 17.5087C28.7729 17.0494 24.9391 18.2598 22.0694 20.8108C19.1977 23.3639 17.5508 27.028 17.5508 30.8618C17.5508 33.7563 18.4591 36.5142 20.1763 38.8377C22.5184 42.0073 23.7577 45.448 23.7577 48.7873V49.4825C23.7577 50.0536 24.2211 50.517 24.7922 50.517H37.206C37.777 50.517 38.2404 49.9315 38.2404 49.3604C38.2404 45.4708 39.4011 41.8791 41.5094 39.2453C43.8928 36.266 44.8777 32.5191 44.2777 28.6977C43.3673 22.9025 38.4639 18.1956 32.6211 17.5087ZM39.8935 37.9522C37.6797 40.7184 36.3825 44.3804 36.1963 48.448H32.0335V43.7039L33.8004 41.937C34.2039 41.5336 34.2039 40.8777 33.8004 40.4742C33.397 40.0708 32.7411 40.0708 32.3377 40.4742L30.9991 41.8129L29.6625 40.4763C29.2591 40.0729 28.6032 40.0729 28.1997 40.4763C27.7963 40.8798 27.7963 41.5356 28.1997 41.9391L29.9666 43.706V48.448H25.8246C25.7439 44.7715 24.3722 41.0308 21.8418 37.6067C20.3894 35.6432 19.6218 33.3094 19.6218 30.8618C19.6218 27.6177 21.0163 24.5184 23.4473 22.3563C25.9094 20.1673 29.0853 19.1742 32.3811 19.5632C37.3239 20.1446 41.468 24.1211 42.2356 29.0184C42.7425 32.2584 41.9108 35.4301 39.8935 37.9522Z" fill="#252C54"/>
<path d="M31.0013 15.3448C31.5723 15.3448 32.0358 14.8814 32.0358 14.3103V6.03448C32.0358 5.46345 31.5723 5 31.0013 5C30.4302 5 29.9668 5.46345 29.9668 6.03448V14.3103C29.9668 14.8814 30.4302 15.3448 31.0013 15.3448Z" fill="#252C54"/>
<path d="M52.4231 13.578C52.0197 13.1745 51.3638 13.1745 50.9604 13.578L45.1073 19.4311C44.7038 19.8345 44.7038 20.4904 45.1073 20.8938C45.31 21.0966 45.5749 21.1959 45.8397 21.1959C46.1045 21.1959 46.3693 21.0945 46.5721 20.8938L52.4252 15.0407C52.8266 14.6373 52.8266 13.9835 52.4231 13.578Z" fill="#252C54"/>
<path d="M11.0427 13.578C10.6392 13.1745 9.98338 13.1745 9.57993 13.578C9.17648 13.9814 9.17648 14.6373 9.57993 15.0407L15.433 20.8938C15.6337 21.0966 15.8986 21.198 16.1634 21.198C16.4282 21.198 16.691 21.0966 16.8937 20.8938C17.2972 20.4904 17.2972 19.8345 16.8937 19.4311L11.0427 13.578Z" fill="#252C54"/>
<path d="M10.3103 33.9653H2.03448C1.46345 33.9653 1 34.4288 1 34.9998C1 35.5708 1.46345 36.0343 2.03448 36.0343H10.3103C10.8814 36.0343 11.3448 35.5708 11.3448 34.9998C11.3448 34.4288 10.8814 33.9653 10.3103 33.9653Z" fill="#252C54"/>
<path d="M59.9646 33.9653H51.6888C51.1177 33.9653 50.6543 34.4288 50.6543 34.9998C50.6543 35.5708 51.1177 36.0343 51.6888 36.0343H59.9646C60.5357 36.0343 60.9991 35.5708 60.9991 34.9998C60.9991 34.4288 60.5357 33.9653 59.9646 33.9653Z" fill="#252C54"/>
<path d="M37.2061 52.5862H24.7923C24.2213 52.5862 23.7578 53.0496 23.7578 53.6207C23.7578 54.1917 24.2213 54.6551 24.7923 54.6551H37.2061C37.7771 54.6551 38.2406 54.1917 38.2406 53.6207C38.2406 53.0496 37.7771 52.5862 37.2061 52.5862Z" fill="#252C54"/>
<path d="M37.2061 56.7241H24.7923C24.2213 56.7241 23.7578 57.1876 23.7578 57.7586C23.7578 58.3296 24.2213 58.7931 24.7923 58.7931H37.2061C37.7771 58.7931 38.2406 58.3296 38.2406 57.7586C38.2406 57.1876 37.7771 56.7241 37.2061 56.7241Z" fill="#252C54"/>
<path d="M33.0689 60.8621H28.931C28.3599 60.8621 27.8965 61.3255 27.8965 61.8965C27.8965 62.4676 28.3599 62.931 28.931 62.931H33.0689C33.6399 62.931 34.1034 62.4676 34.1034 61.8965C34.1034 61.3255 33.6399 60.8621 33.0689 60.8621Z" fill="#252C54"/>
</svg>
